<?xml version="1.0" standalone="no"?>
<!DOCTYPE svg PUBLIC "-//W3C//DTD SVG 1.1//EN" "http://www.w3.org/Graphics/SVG/1.1/DTD/svg11.dtd" >
<svg xmlns="http://www.w3.org/2000/svg" xmlns:xlink="http://www.w3.org/1999/xlink" version="1.1">
<metadata></metadata>
<defs>
<font id="madelon_scriptregular" horiz-adv-x="1267" >
<font-face units-per-em="2048" ascent="1395" descent="-653" />
<missing-glyph horiz-adv-x="497" />
<glyph horiz-adv-x="0" />
<glyph horiz-adv-x="682" />
<glyph horiz-adv-x="0" />
<glyph horiz-adv-x="0" />
<glyph unicode="&#xd;" horiz-adv-x="681" />
<glyph unicode=" "  horiz-adv-x="497" />
<glyph unicode="&#x09;" horiz-adv-x="497" />
<glyph unicode="&#xa0;" horiz-adv-x="497" />
<glyph unicode="!" horiz-adv-x="520" d="M23 0q-6 27 8 49.5t41 30.5q27 6 50 -6.5t30 -38.5q8 -25 -7.5 -47.5t-40.5 -28.5q-27 -8 -50 4t-31 37zM68 201q29 268 137 688q115 430 241 612q10 14 25.5 12t22 -16t0.5 -31q-123 -178 -234 -600q-109 -428 -133 -669q0 -18 -14.5 -24.5t-29.5 2t-15 26.5z" />
<glyph unicode="&#x22;" horiz-adv-x="235" d="M23 887l63 162q4 14 17.5 16t23.5 -8t6 -25l-63 -162q-4 -14 -18.5 -16t-24.5 8.5t-4 24.5zM102 887l64 162q4 14 17.5 16t23.5 -8t6 -25l-63 -162q-4 -14 -18.5 -16t-25 8.5t-4.5 24.5z" />
<glyph unicode="#" horiz-adv-x="1079" d="M22.5 332.5q-4.5 15.5 5 29t27.5 11.5q74 -12 199 -15l125 213q-203 10 -311 19q-18 2 -24.5 17.5t1.5 28.5t27 11q166 -14 342 -16q147 264 207 387q14 27 39.5 13.5t13.5 -40.5q-96 -188 -195 -362h287q135 264 178 336q14 23 39 8q25 -14 12 -37q-25 -41 -80 -152 q-43 -86 -84 -155q63 2 197 2q29 0 29 -31q0 -29 -29 -29h-54.5h-46h-37t-28.5 -1t-22.5 -1h-17.5h-11h-6h-2q-37 -72 -119 -209q53 0 104.5 1t77 2.5t31.5 1.5q29 0 29 -31q0 -29 -29 -29q-78 0 -133 -2q-53 -2 -115 -2q-190 -342 -203 -416q-2 -18 -17 -22t-28.5 6.5 t-11.5 26.5q12 84 193 403h-295l-195 -309q-16 -25 -38.5 -9.5t-10.5 39.5l176 281q-109 2 -174 14q-18 2 -22.5 17.5zM322 358h294q105 184 119 211h-289z" />
<glyph unicode="$" horiz-adv-x="874" d="M23 270q2 29 30 25q31 -4 31 -29q-18 -176 129 -227q49 -20 127 -21q8 262 78 635q-123 131 -158 217q-55 137 -10 258t180 197q98 53 195 66l34 73q14 27 39 13.5t15 -39.5l-23 -45q94 -6 137 -62q98 -133 -176 -395q-10 -6 -19 -6t-15.5 5t-10.5 12t-3 15.5t7 14.5 q238 231 170 317q-31 39 -114 39q-106 -266 -185 -659l31 -31q119 -129 150 -170q145 -195 24 -348q-82 -111 -289 -158v-59q0 -18 -13 -26.5t-27.5 -1t-16.5 25.5v57q-76 -2 -150 23q-182 68 -167 284zM288 1011.5q1 -57.5 27 -118.5q27 -68 117 -168q76 369 168 602 q-80 -18 -141 -53q-27 -14 -52.5 -33.5t-55 -55.5t-47 -76t-16.5 -97.5zM397 25q164 29 242 133q92 127 -25 280q-39 55 -145 164q-2 0 -2 2q-61 -338 -70 -579z" />
<glyph unicode="%" horiz-adv-x="1189" d="M29 -92q-29 20 47 102q111 117 252 305q180 246 241 332q98 143 252 309q150 162 301 271q14 12 27.5 4t15.5 -22.5t-10 -28.5q-133 -96 -270 -248q-141 -154 -223 -270q-27 -37 -60 -83.5t-79 -108.5t-74 -101q-111 -152 -213 -273q252 233 331 281q51 51 142 45 q92 -4 118 -74q41 -98 -30 -201q-72 -102 -172 -86q-49 8 -77 57.5t-26 123.5q0 4 1 16t1 16q-57 -45 -178 -159q-111 -104 -190 -164q-94 -63 -127 -43zM291 831q-23 74 1.5 159t82.5 134q41 35 86 50.5t99 2t106 -60.5q25 0 30 -20q35 -127 -55 -248q-31 -41 -82 -72 t-104.5 -42t-99.5 12.5t-64 84.5zM346 848q16 -57 68.5 -58.5t102.5 29.5t77 64q66 84 49 178l-41 24q-39 27 -53 33q-53 25 -96 -6q-59 -35 -95 -121q-31 -82 -12 -143zM582 240q-2 -111 51 -119q72 -12 119 65.5t22 139.5q-33 76 -168 6q-20 -31 -24 -92z" />
<glyph unicode="&#x26;" horiz-adv-x="1624" d="M20 -72q4 240 213 439q215 203 533 292q-82 375 -53 578q23 150 100.5 254t190.5 139q82 25 159.5 4.5t130.5 -80.5q78 -84 82 -222t-65 -306q-59 -143 -175 -236.5t-302 -166.5q72 -311 176 -535q115 139 194 285q80 150 88 239q2 18 17.5 23.5t29 -2.5t11.5 -27 q-8 -104 -97 -264q-80 -152 -215 -311q72 -154 179.5 -234t216.5 -71q111 6 211 87t165 218q6 16 22.5 17t27 -12t4.5 -30q-102 -219 -266 -303t-328 -8q-166 76 -273 289q-59 -68 -123 -129q-389 -378 -665 -267q-88 39 -138.5 129t-50.5 211zM80 -74q-2 -100 39 -176 t112 -106q111 -49 266.5 17.5t336.5 234.5q68 68 135 143q-113 223 -191 561q-258 -86 -461 -238q-233 -174 -237 -436zM772 1229q-27 -178 49 -547q172 68 277.5 153t156.5 214q131 315 -4 467q-96 102 -231 57q-96 -29 -162.5 -121t-85.5 -223z" />
<glyph unicode="'" horiz-adv-x="155" d="M23 887l63 162q4 14 17.5 16t23.5 -8t6 -25l-63 -162q-4 -14 -18.5 -16t-24.5 8.5t-4 24.5z" />
<glyph unicode="(" horiz-adv-x="976" d="M41 -305q-47 203 20 471q72 276 207 520q137 246 310 459q172 207 331 311q23 14 39.5 -10.5t-6.5 -40.5q-225 -145 -442 -451q-217 -303 -338 -655q-119 -348 -64 -588q70 -307 428 -344q31 -2 25 -31q-4 -28 -31 -28q-397 45 -479 387z" />
<glyph unicode=")" horiz-adv-x="976" d="M27 -664q-14 25 8 41q221 143 440 451q217 303 338 655.5t66 587.5q-70 307 -428 344q-31 2 -27 31q6 29 33 29q395 -45 479 -388q47 -205 -23 -473q-68 -272 -204 -518q-139 -250 -312 -458q-168 -207 -329 -312q-25 -16 -41 10z" />
<glyph unicode="*" horiz-adv-x="720" d="M27.5 752.5q-13.5 19.5 3.5 35.5l278 318l-235 217q-14 12 -9 27.5t19 19.5t29 -4l213 -197l43 240q2 18 17 22.5t28.5 -6t11.5 -26.5l-37 -201l260 295q23 18 42.5 1t2.5 -40l-301 -344l164 -152q14 -12 9 -26t-20.5 -19.5t-27.5 2.5l-153 140l-43 -246q-6 -29 -35 -23 q-25 6 -23 33l31 180q-230 -258 -234 -258q-20 -8 -33.5 11.5z" />
<glyph unicode="+" horiz-adv-x="778" d="M20 655.5q0 28.5 29 28.5l303 14l45 357q4 31 31 24q29 -4 29 -30l-43 -349l313 17q18 0 26.5 -14.5t1.5 -29t-26 -14.5l-323 -16l-44 -354q-2 -16 -17 -22.5t-29.5 1.5t-12.5 25l43 346l-295 -14h-2q-29 2 -29 30.5z" />
<glyph unicode="," horiz-adv-x="174" d="M27.5 31.5q-13.5 29.5 2 59.5t52.5 32q31 2 51.5 -14.5t20.5 -47.5q0 -27 -22.5 -58.5t-49.5 -49.5q-18 -12 -31 8q-8 12 2 21l23 18q-35 2 -48.5 31.5z" />
<glyph unicode="-" horiz-adv-x="872" d="M21 658.5q-1 25.5 26 29.5l776 33q29 0 29 -27.5t-27 -31.5l-774 -33h-2q-27 4 -28 29.5z" />
<glyph unicode="." horiz-adv-x="174" d="M29.5 6q-17.5 31 0 62.5t58.5 31.5q39 2 55.5 -30.5t0 -64.5t-55.5 -30q-41 0 -58.5 31z" />
<glyph unicode="/" horiz-adv-x="831" d="M25 -125l727 1647q16 29 45 10q18 -16 10 -33l-729 -1649q-12 -25 -39 -12q-24 8 -14 37z" />
<glyph unicode="0" horiz-adv-x="860" d="M22.5 371q12.5 219 116.5 440q96 201 233.5 314.5t291.5 119.5q18 0 25 -14t1 -28.5t-22 -14.5q-139 -8 -263 -112.5t-212 -291.5q-94 -199 -111 -407q-12 -207 63 -309q72 -96 211 -78q154 20 271 149q111 127 145 322q27 172 -34.5 343t-233.5 255q-16 6 -17.5 21.5 t12 26.5t29.5 5q172 -86 254 -266q82 -174 47 -395q-35 -213 -161 -353q-125 -141 -306 -166q-176 -20 -264 101q-88 119 -75.5 338z" />
<glyph unicode="1" horiz-adv-x="714" d="M20 -205q0 35 9 70q8 39 73 186q35 70 64 123q47 80 67 123l84 145l86 152q184 330 205 375q-100 -63 -176 -88q-27 -8 -37 18.5t19 36.5q84 29 219 121q25 16 49 0q23 -20 -12 -99q-35 -74 -215 -393l-82 -141l-78 -141q-23 -37 -68 -121q-57 -106 -63 -119 q-59 -127 -76 -182q-8 -33 -8 -66q0 -29 -31 -26q-29 -1 -29 26z" />
<glyph unicode="2" horiz-adv-x="1255" d="M31 -109q-18 20 16 68q27 37 234 256q379 406 438 504q37 70 25.5 109.5t-53.5 54t-95 10.5t-100 -23q-133 -55 -123 -157q2 -18 -12.5 -26.5t-30 -2.5t-17.5 25q-4 68 38 126t122 91q94 39 193 22q102 -18 130.5 -80.5t-28.5 -179.5q-53 -92 -444 -512l-154 -166 q453 270 1030 359q29 2 32 -26t-24 -34q-629 -94 -1095 -405q-59 -42 -82 -13z" />
<glyph unicode="3" horiz-adv-x="894" d="M20 -190q4 29 29 28q137 0 275.5 61.5t240.5 159.5q223 217 248 412q23 135 -133 164q-31 8 -90 2q-104 -12 -162 -25q-76 -20 -88 9q-14 25 33 59l24 14q6 2 45 29l47 31q68 45 101 80q74 82 28 116q-37 27 -97 31t-124 -20q-90 -47 -121 -160q-2 -10 -9 -16.5t-16 -5.5 t-17.5 4t-12.5 12.5t-2 19.5q39 139 154 199q68 33 149.5 27.5t132.5 -44.5q135 -109 -166 -313q70 16 143 12t131 -20.5t89 -71.5t18 -141q-29 -215 -264 -445q-111 -104 -256 -170q-149 -67 -301 -67q-29 0 -29 29z" />
<glyph unicode="4" horiz-adv-x="1452" d="M27 266q-10 20 2 41q33 53 465 402q453 360 503 393q27 14 41.5 -8.5t-8.5 -40.5q-33 -20 -383 -297q-354 -281 -479 -391q197 76 526 149q322 72 430 102q193 344 265 383q27 14 38 -11t-12 -42q-55 -33 -211 -307q14 4 32.5 12t24 9.5t19.5 -3.5q14 -8 14 -23.5 t-14 -25.5q-25 -16 -117 -45q-141 -252 -284 -540q-102 -197 -113 -201q-10 -10 -23.5 -4t-16.5 21.5t5 27.5q10 16 94 182l258 494q-264 -59 -446 -103q-150 -37 -281 -75q-156 -47 -223 -82q-4 -2 -18.5 -10.5t-24.5 -12.5t-23.5 -8t-23.5 0t-16 14z" />
<glyph unicode="5" horiz-adv-x="907" d="M-98 56.5q2 17.5 15 24.5t30 -1q88 -57 192.5 -70.5t188.5 17.5q156 53 243 116q129 92 199 203q74 119 53 201q-20 80 -143 112q-33 10 -145 19q-14 2 -72 2h-51q-2 0 -36 -1t-48 -1q-6 0 -24.5 2t-26 4t-18.5 5t-15 9.5t-4 16.5q0 29 186 282h-152q-29 0 -28 29 q0 31 28 31h197l41 55q10 16 25.5 13t21.5 -17t0 -31l-16 -20h239q33 0 29 -31q0 -29 -29 -29h-282l-181 -256q18 -2 93 -2q23 0 51 -2q51 0 63 -2q84 0 129 -12q94 -18 117 -35q92 -51 107 -127q27 -98 -52 -233q-78 -131 -223 -234q-207 -145 -411 -145q-158 0 -277 82 q-16 8 -14 25.5z" />
<glyph unicode="6" horiz-adv-x="913" d="M66 76q-115 162 55 424q123 182 317 331q205 158 416 232q16 6 28.5 -5t10.5 -27.5t-19 -22.5q-209 -78 -401 -224q-186 -141 -303 -315q-150 -229 -55 -358q43 -59 128 -82t177 2q135 33 207 162q68 125 12 217q-55 86 -199 86q-29 0 -28 28q0 31 28 31q119 0 193 -50 t82 -130q25 -117 -56 -242t-223 -160q-94 -31 -203 -4q-110 27 -167 107z" />
<glyph unicode="7" horiz-adv-x="751" d="M25 -309l335 624q-86 -4 -127 -4q-29 0 -28 29q4 31 28 31q74 0 164 8l275 487q-6 8 -37 15q-35 10 -191.5 -4.5t-375.5 -55.5q-18 -4 -27.5 9.5t-4.5 28.5t21 20q600 111 662 20q23 -35 -2 -74l-250 -440q14 2 80 2q31 0 26 -29q0 -29 -26 -28q-68 0 -115 -6l-356 -662 q-14 -25 -40 -11.5t-11 40.5z" />
<glyph unicode="8" horiz-adv-x="776" d="M31 289q29 143 110 262q84 121 191 147q23 12 35 -12q-59 184 61 295q66 63 152 72q86 10 137 -39q27 -23 35 -56q14 -37 -15.5 -115.5t-105.5 -168.5l-117 -135q14 -23 45 -56q72 -82 93.5 -175t3 -166.5t-61.5 -139.5q-70 -104 -180.5 -147.5t-214.5 -6.5 q-113 39 -154 170q-41 135 -14 271zM92.5 290.5q-26.5 -118.5 1.5 -237.5q31 -117 125 -149q84 -29 175 7t151 124q68 96 59.5 204.5t-90.5 204.5l-41 52q-74 -80 -242 -250q-23 -16 -42 3t1 40q182 182 248 256q-44 70 -67 129q2 -23 -19 -31q-90 -18 -159 -125 q-74 -109 -100.5 -227.5zM467 938q-129 -125 12 -348q25 25 107 123q55 66 83.5 121t26.5 85.5t-18 51.5q-53 33 -109.5 21.5t-101.5 -54.5z" />
<glyph unicode="9" horiz-adv-x="1019" d="M21.5 -147.5q-1.5 14.5 12 24.5t29.5 2q180 -92 314 -39q106 41 207 193q43 68 84 164q51 115 71 170q4 14 28 77.5t42 114.5q74 211 94 256q-195 -193 -350 -242q-248 -76 -315 56q-47 104 32 266q84 166 226 260q113 74 223 60.5t194 -111.5q12 -14 5 -28.5t-22 -16.5 t-28 8q-145 164 -340 39q-125 -84 -200.5 -227.5t-36.5 -223.5q45 -92 244 -26q152 47 354 256q66 70 94.5 52.5t-8.5 -101.5q-33 -82 -111 -295q-41 -119 -71 -201q-29 -78 -76 -178q-49 -109 -90 -170q-109 -160 -230 -207q-55 -23 -123 -23q-113 0 -237 66 q-14 10 -15.5 24.5z" />
<glyph unicode=":" horiz-adv-x="174" d="M29.5 6q-17.5 31 0 62.5t58.5 31.5q39 2 55.5 -30.5t0 -64.5t-55.5 -30q-41 0 -58.5 31zM29.5 554q-17.5 32 0 62.5t58.5 30.5q39 2 55.5 -30.5t0 -64.5t-55.5 -30q-41 0 -58.5 32z" />
<glyph unicode=";" horiz-adv-x="174" d="M27.5 31.5q-13.5 29.5 2 59.5t52.5 32q31 2 51.5 -14.5t20.5 -47.5q0 -27 -22.5 -58.5t-49.5 -49.5q-10 -8 -27 2q-16 14 -2 27l23 18q-35 2 -48.5 31.5zM29.5 554q-17.5 32 0 62.5t58.5 30.5q39 2 55.5 -30.5t0 -64.5t-55.5 -30q-41 0 -58.5 32z" />
<glyph unicode="&#x3c;" horiz-adv-x="653" d="M25 547q14 49 153 151q188 137 414 258q16 8 28.5 -3t12 -27.5t-16.5 -22.5q-111 -53 -315.5 -190.5t-218.5 -180.5q147 -213 317 -395q14 -14 9 -28.5t-21 -16.5t-31 4q-178 195 -325 408q-14 18 -6 43z" />
<glyph unicode="=" horiz-adv-x="880" d="M22.5 553q0.5 27 26.5 31l772 20q18 0 26.5 -14.5t2 -28.5t-24.5 -14l-774 -21q-29 0 -28.5 27zM62 871.5q1 27.5 28 31.5l739 8q18 0 25.5 -15t1 -29.5t-24.5 -14.5l-741 -8q-29 0 -28 27.5z" />
<glyph unicode="&#x3e;" horiz-adv-x="655" d="M23 125q0 16 16 22q111 53 315.5 190.5t218.5 180.5q-147 213 -317 395q-14 14 -9 28.5t21.5 17t30.5 -4.5q178 -195 326 -407q14 -18 6 -43q-16 -53 -156 -154q-199 -141 -412 -256q-16 -8 -28 3.5t-12 27.5z" />
<glyph unicode="?" horiz-adv-x="778" d="M35 -6q-8 25 7 48.5t42 29.5q25 8 48.5 -5.5t31.5 -37.5q6 -27 -8 -48.5t-41 -29.5q-27 -6 -50.5 6t-29.5 37zM37 150q-35 178 33 278q59 88 116 137l70 58l80 59q106 82 156 123q94 84 145 178q98 176 39 315q-45 88 -170 58q-145 -41 -232 -166q-84 -127 -84 -264 q4 -131 74 -146q16 -4 19.5 -19.5t-7 -28.5t-26.5 -9q-117 29 -119 201q-2 152 94 299q98 145 267 190q166 45 235 -86q31 -74 29 -160q-2 -90 -62.5 -202.5t-163.5 -204.5q-49 -43 -159 -125l-76 -57q-88 -61 -129 -113q-63 -78 -76 -133q-18 -80 4 -168q2 -10 -2 -19.5 t-12 -12.5t-17.5 -4t-16.5 5.5t-9 16.5z" />
<glyph unicode="@" horiz-adv-x="1398" d="M20 217q4 295 189 610q90 152 209 279q121 127 284 215q166 88 334 86q236 -6 316 -182q47 -109 0 -299q-55 -233 -367 -578q-113 -131 -170 -100q-23 10 -29 41q-14 78 66 413q-129 -166 -309 -301q-100 -76 -154 -34q-82 68 41 335q72 160 178 267q109 109 213 88 q100 -14 140 -162q4 -16 -8.5 -27.5t-28 -8.5t-19.5 20q-33 113 -94 120q-80 14 -172 -84t-156 -237q-35 -74 -51 -136.5t-14 -89t8 -40.5q20 -8 82 37q182 137 352 362q39 57 66 45q16 -10 16 -26.5t-14 -77.5q-2 -2 -2 -7q-102 -420 -82 -448l8 6q49 37 90 84 q229 252 321.5 464t32.5 349q-66 145 -262 148q-231 4 -434 -158q-205 -162 -340 -393q-117 -203 -158 -412q-43 -186 19.5 -310t253.5 -128q184 2 422 110q236 106 325 213q14 10 30.5 5t21 -18t-6.5 -28q-98 -111 -350 -225q-241 -111 -448 -115q-168 0 -258.5 90.5 t-90.5 237.5z" />
<glyph unicode="A" d="M4 -90q55 94 174 346l90 195l99 190q72 129 118 197q51 74 136 172q80 98 161 164q203 156 418 215q11 3 20 3q30 0 36 -37q2 -16 3 -30q0 -27 -10 -45l-194 -733l65 8q18 4 28.5 -9.5t6.5 -30.5t-20 -19q-84 -6 -97 -11q-82 -305 -118 -426q-39 -137 -60 -182 q-15 -39 -33 -43q-10 0 -18 3t-11 8t-5 15.5t-2 15.5v17.5v14.5q4 36 4 71q0 149 -70 263q-35 53 -88 98q-61 51 -86 63q-27 16 -76 39q-37 18 -48 35t1 27t33.5 17t50.5 11q111 4 242 5q178 4 239 8l199 755l8 29q-113 -35 -213 -92q-201 -115 -332 -276q-59 -74 -129 -168 q-45 -63 -112 -191q-43 -78 -97 -184l-86 -187q-96 -211 -174 -350q-14 -12 -29.5 -12t-23.5 13.5t0 27.5zM547 475q283 -150 303 -446q39 127 127 454q-403 -6 -430 -8z" />
<glyph unicode="B" horiz-adv-x="2097" d="M12 424q-11 17 -11 39q0 82 140 239q168 190 426 388q264 205 541 329q184 83 304 83q64 0 110 -23q81 -39 81 -125q0 -67 -49 -162q-90 -176 -264 -354q14 2 168 39q268 66 386 66q14 0 26 -1q128 -11 128 -101q0 -44 -30 -106q-61 -117 -278 -276q-111 -82 -193 -140 l-240 -161q-86 -57 -231 -156q-74 -51 -164 -121q-88 -74 -110 -108q-28 -52 -55 -52q-8 0 -15 5q-18 10 -20 22q-1 2 -1 5q0 19 19 85q29 100 72 223l153 437q164 457 205 602q4 16 19.5 19t28.5 -8t9 -28q-35 -119 -206 -606q-162 -449 -216 -620q82 82 480 350l303 203 q102 70 229 178q123 104 158 174q18 37 18 63q0 19 -11 33q-24 29 -97 29h-10q-84 -4 -342 -68q-140 -35 -207 -35q-63 0 -60 31v4q2 20 41 60q152 150 246 321q48 89 48 146q0 54 -44 79q-35 18 -87 18q-71 0 -171 -34q-166 -55 -362 -180q-201 -127 -379 -273 q-186 -150 -314 -294q-51 -59 -82.5 -106.5t-39 -71t-1.5 -27.5q11 -10 38 -10q45 0 134 28q29 10 35 -20q8 -27 -16 -37q-94 -27 -152 -27q-65 0 -88 33z" />
<glyph unicode="C" horiz-adv-x="1681" d="M0 154q14 131 102 274q92 150 249 309.5t343.5 294.5t397.5 217q190 75 353 75q19 0 38 -1q178 -8 184 -100v-5q0 -54 -81 -102q-85 -50 -249 -84q-29 -6 -34 23q-4 29 22 35q92 18 176 51q109 49 109 78q-2 8 -13.5 16t-42 17.5t-75.5 11.5q-19 1 -39 1q-156 0 -334 -71 q-203 -80 -383 -211q-377 -276 -569 -586q-91 -151 -92 -236q0 -110 153 -110q170 2 504 135q326 129 590 263q252 127 372 200q14 10 28.5 2t15.5 -23.5t-13 -27.5q-211 -131 -665 -342q-236 -109 -461 -182q-240 -80 -371 -82q-113 0 -167 43q-49 39 -49 103q0 7 1 14z " />
<glyph unicode="D" horiz-adv-x="2029" d="M3 459q-3 10 -3 22q0 46 47 121q53 86 164 193.5t266.5 219t336.5 194.5q180 83 376 121q96 19 192 18q97 0 193 -19q184 -41 298 -142.5t126 -236.5q1 -17 1 -34q0 -104 -52 -207q-39 -76 -181 -199q-45 -39 -127 -86q-63 -37 -135 -76q-59 -33 -149 -74l-148 -63 l-149 -61l-156 -66q-18 -8 -127 -57q-135 -66 -155 -115q-31 -25 -50 -6.5t4 47.5q76 143 281 600q201 449 201 514q0 29 30 29q29 0 29 -29q0 -92 -248 -631q-164 -358 -180 -391q80 47 348 158l138 57l139 62q86 37 143 67q82 43 129 72q102 57 223 168q134 128 134 304 v13q-10 117 -113 204t-266 120q-84 17 -175 17q-133 1 -279 -37q-245 -64 -444.5 -187t-352 -255t-216.5 -237q-38 -57 -38 -87q0 -25 26 -31q7 -1 16 -1q42 0 125 23q25 8 35 -20q8 -27 -16 -37q-72 -20 -126 -20q-19 0 -36 2q-64 10 -79 59z" />
<glyph unicode="E" horiz-adv-x="1439" d="M37 647q-39 52 -39 116q0 82 65 183q125 193 400 309q181 81 407 81q145 0 308 -33q184 -43 184 -118v-7q-10 -86 -295 -99q-18 0 -25.5 15.5t-1 30t24.5 14.5q195 10 225 37l13 10q-16 29 -140 59q-162 34 -300 34q-35 0 -69 -2q-166 -11 -305 -71.5t-231 -134.5 t-145 -156q-57 -91 -57 -155q0 -44 26 -76q29 -41 127 -59q28 -5 62 -5q123 0 327 70q143 51 213 58q45 6 53 -21q4 -8 4 -17q0 -26 -30 -63q-31 -35 -193 -190q-242 -229 -309 -320q-12 -16 -25 -35q-30 -44 -30 -77q0 -21 12 -37q29 -38 102 -38q49 0 117 17 q121 37 240 88q139 63 211 105q88 49 217 127q135 80 202 116q27 14 39.5 -10t-10.5 -41q-123 -76 -285 -168q-106 -61 -286 -149q-178 -88 -312 -125q-68 -19 -125 -19q-115 0 -157 62q-24 31 -24 69q0 50 40 113q66 102 344 365q143 135 189 186q-43 -6 -177 -51 q-210 -71 -358 -71h-12q-150 3 -211 83z" />
<glyph unicode="F" horiz-adv-x="1447" d="M41 565q-16 20 -16.5 48t16.5 63q68 143 346 342q283 201 649 338q25 152 25 153q4 18 19.5 21.5t27.5 -7t10 -26.5q-6 -29 -20 -119q463 161 923 161q37 0 74 -1q141 -2 148 -59q1 -3 1 -6q0 -33 -61 -76q-74 -49 -215 -101q-29 -14 -37 17q-8 29 19 39q193 66 231 116 q-25 10 -88 13q-37 1 -73 1q-469 0 -933 -167q-82 -532 -112 -719q106 31 356 80q29 0 34 -25.5t-24 -34.5q-248 -47 -378 -86q-84 -467 -150 -606q-31 -63 -72 -63q-66 10 -96 139q-16 78 -20 180v14q1 96 27 180q28 90 81 122q61 41 178 79l37 230l47 293l31 194 q-356 -139 -614 -327.5t-318 -313.5q-18 -37 -8 -47q9 -12 36 -12q42 0 126 29q29 10 35 -21q8 -27 -17 -37q-83 -26 -139 -26q-58 0 -86 28zM686 193v-25q0 -188 57 -248q27 53 41 94q41 119 58 195q8 33 20 96l19 107l18 98q-90 -33 -135 -64q-74 -47 -78 -253z" />
<glyph unicode="G" horiz-adv-x="1325" d="M2 -82v12q0 112 100 299q104 199 272.5 410t383.5 393q215 184 407 256q56 21 96 21q43 0 68 -25q26 -26 26 -66q0 -24 -9 -53q-27 -76 -99 -141q-72 -66 -151 -74q-18 -2 -26.5 12.5t-2.5 30t23 17.5q61 8 120.5 61t77.5 113q14 43 0 57q-10 10 -30 10q-27 0 -72 -18 q-176 -63 -391 -244q-203 -172 -371 -379q-154 -188 -268 -395q-97 -183 -97 -282v-13q2 -51 43 -61q16 -4 34 -4q81 0 210 84q166 102 324 254q166 156 303 303q137 150 211 247q14 14 35.5 3t15.5 -31q-2 -2 -8 -31q-2 -10 -11.5 -43t-17.5 -65.5t-12 -53.5 q-41 -160 -78 -303t-61.5 -236.5t-28.5 -109.5q133 53 153 64q16 8 28.5 -2.5t11.5 -28t-15 -25.5q-141 -55 -199 -80q-55 -195 -82 -250q-43 -94 -88 -94q-61 0 -63 99v18q0 175 184 268q51 176 180 695l15 63q-203 -240 -479 -491q-145 -137 -291 -224q-143 -88 -242 -88 q-55 0 -90 33t-39 88zM823 -440q0 -20 6 -39q14 14 33 55q23 43 62 184q-101 -67 -101 -188v-12z" />
<glyph unicode="H" horiz-adv-x="1605" d="M-16 80q-16 84 -16 151q0 167 98 228q135 84 733 207l221 491q6 16 22.5 17.5t26.5 -12t4 -29.5l-205 -453q371 76 549 102q143 426 187 504q18 25 40.5 11.5t10.5 -40.5q-45 -78 -174 -464l82 10q18 0 27 -14.5t3 -29t-24 -16.5l-109 -14q-117 -354 -121 -367 q-82 -233 -102 -290q-106 -301 -168 -371q-20 -20 -40.5 -2t-4.5 41q80 90 373 979q-195 -33 -559 -107q-334 -723 -430 -866q-57 -94 -136 -94q-55 0 -108 48t-90 124q-66 135 -90 256zM34 295q-6 -33 -5 -71q0 -60 14 -132q27 -145 90 -258q66 -113 127 -121q6 -1 13 -1 q46 0 85 65q115 190 408 821q-561 -121 -670 -188q-48 -29 -62 -115z" />
<glyph unicode="I" horiz-adv-x="1400" d="M18 422q-18 22 -18 51q0 31 20 70q43 82 159 188.5t272 204.5q152 96 366 164q175 55 335 55q32 0 62 -2q129 -8 148 -127q4 -23 5 -50q0 -114 -79 -294q-96 -225 -237 -438q-145 -221 -277 -383q-135 -170 -192 -197q-25 -10 -41 -10q-29 0 -56 27q-26 36 -26 105 q0 75 30 189q59 225 140 320q23 23 43 4q23 -23 2 -43q-74 -84 -127 -291q-29 -119 -29 -184q0 -45 14 -64q4 -8 25 0q66 31 256 283q195 260 354 565q142 270 142 410q0 22 -4 41q-12 72 -95 78q-29 2 -58 2q-152 0 -316 -52q-193 -59 -351 -157q-152 -92 -263 -193.5 t-148 -175.5q-23 -45 -11 -59q11 -11 39 -12q43 0 127 28q31 8 37 -20q8 -25 -18 -37q-87 -27 -143 -27q-61 0 -87 31z" />
<glyph unicode="J" horiz-adv-x="1849" d="M14 418q-14 19 -14 44q0 37 31 87q111 182 458 426q164 115 353 215q188 98 377 145q129 32 235 32q57 0 107 -9q102 -18 149 -127q36 -84 36 -212q0 -39 -3 -81q-27 -332 -236 -772q264 53 576 92q18 2 26.5 -12.5t2 -29.5t-22.5 -17q-328 -39 -614 -101 q-125 -246 -271 -434q-145 -193 -336 -319q-186 -127 -370 -131q-98 0 -164 38.5t-84 106.5q-7 25 -7 52q0 85 75 189q98 138 317 267q293 172 801 283q213 424 247 794q4 47 4 88q0 244 -137 268q-45 8 -95 8q-138 0 -312 -59q-233 -76 -451 -211q-213 -133 -381 -276 q-176 -150 -229 -244q-24 -37 -24 -54q0 -6 3 -9q0 -4 10.5 -7.5t53.5 1t108 26.5q29 10 35 -20q6 -29 -18 -37q-93 -28 -152 -28t-84 28zM307 -625q31 -102 189 -102q240 0 477 229q244 230 428 580q-471 -109 -735 -264q-199 -119 -289 -238q-74 -97 -74 -173q0 -16 4 -32 z" />
<glyph unicode="K" horiz-adv-x="1257" d="M-117 -401q0 53 156 534l35 111q35 100 55 170q254 801 303 903q10 16 24.5 16t25 -13t3.5 -30q-41 -84 -217 -633q-170 -524 -284 -905q360 541 764 961l-11 37q-10 29 19 34q29 10 39 -16q0 -6 2 -8q510 514 856 514q31 0 28 -31q0 -29 -28 -29q-326 0 -836 -518 q145 -446 293 -518q44 -21 106 -21q97 0 236 52q18 6 29.5 -5t9.5 -27.5t-18 -22.5q-150 -56 -259 -56q-76 0 -131 27q-162 76 -313 522q-391 -403 -760 -960q-53 -82 -67.5 -96.5t-32.5 -18.5q-27 0 -27 27z" />
<glyph unicode="L" horiz-adv-x="608" d="M-55 -387q0 22 266 893q213 686 240 788q8 16 24.5 18.5t26.5 -8t6 -26.5l-242 -791l-241 -792q315 231 612 321q287 88 774 125q16 2 25.5 -12t2.5 -29.5t-24 -15.5q-496 -37 -790 -131q-297 -96 -633 -356q-12 -8 -28 -3q-18 5 -19 19z" />
<glyph unicode="M" horiz-adv-x="2113" d="M35 4q-33 33 -33 116q0 117 64 333q23 80 69 206q80 205 144 347q6 16 22 17t26.5 -12.5t4.5 -29.5q-72 -164 -127 -308.5t-86 -250.5q-31 -108 -47 -188q-14 -71 -14 -115q0 -5 1 -11q2 -46 19 -63q4 -6 16 -6q98 10 342 326q152 197 209 274q102 141 221 309 q248 354 338 455q76 90 117 90q6 0 12 -2q30 -10 30 -53q0 -7 -1 -15q-12 -121 -182 -626q-55 -160 -86 -258l-74 -236q-66 -224 -66 -322q0 -24 4 -40q66 61 340 448q293 410 404 539q101 118 153 118q6 0 11 -2q33 -11 33 -53q0 -6 -1 -12q0 -102 -8 -244 q-11 -109 -11 -213q0 -69 5 -135q16 -168 84 -213q33 -23 85 -23q78 0 198 54q16 8 28.5 -1t11.5 -26.5t-16 -27.5q-131 -57 -224 -57q-70 0 -118 32q-61 43 -87 139q-23 83 -24 183q0 15 1 31q4 118 8 259q4 70 10 242v4q-57 -31 -221 -252q-37 -49 -131 -176l-143 -199 q-199 -281 -289 -391q-76 -94 -109 -94q-55 0 -55 94q0 77 37 217q41 160 80 289q29 98 114 346q168 500 179 606q-66 -59 -388 -510q-221 -307 -272 -378q-100 -133 -219 -281q-219 -266 -326 -274h-5q-36 0 -58 24z" />
<glyph unicode="N" horiz-adv-x="1028" d="M8 225q20 147 111 559q63 287 63 328q0 27 29 27q31 0 31 -27q0 -29 -66 -340q-111 -500 -117 -629q4 4 21 33q381 596 594 856q180 220 264 220q15 0 27 -7q14 -8 12 -37q-4 -39 -35 -161q-193 -760 -221 -1033q-7 -65 -7 -111q0 -83 23 -106q8 -8 22 -8q41 0 130 74 q129 106 248 248q12 16 28.5 13t20.5 -16.5t-4 -29.5q-18 -23 -38 -44.5t-53.5 -58t-64.5 -66.5t-69.5 -63.5t-74.5 -55.5q-36 -24 -71 -40q-33 -16 -62 -15h-3q-30 1 -54 19q-33 31 -33 144q0 285 207 1091l19 72l33 135q-33 -10 -111 -94q-70 -72 -260 -334 q-182 -254 -416 -625q-55 -86 -65 -90q-20 -12 -43 4q-21 13 -21 79q0 37 6 89z" />
<glyph unicode="O" horiz-adv-x="1249" d="M4 754q-2 16 -2 34q0 109 98 261q113 176 289 288q195 128 374 128q144 0 277 -83q180 -111 179 -335q0 -100 -35 -222q-66 -217 -213 -411q-150 -203 -350 -334q-199 -131 -392 -131q-147 4 -166 133q-3 19 -3 41q0 122 85 321q100 236 233.5 424.5t196.5 208.5 q25 8 35 -20q8 -27 -16 -37q-37 -10 -119 -123q-86 -115 -166 -254q-90 -156 -143 -303q-48 -131 -48 -212q0 -19 3 -36q12 -84 98 -86h16q167 0 353 121q197 131 336 322q145 195 202 393q33 114 33 206q0 194 -149 285q-106 68 -232 68h-15q-103 -1 -177 -27 q-78 -28 -164 -86q-164 -106 -270 -268q-90 -144 -90 -235q0 -12 1 -23q6 -55 62 -72q18 -4 21.5 -19.5t-9 -28.5t-28.5 -9q-88 27 -105 121z" />
<glyph unicode="P" horiz-adv-x="1875" d="M25 659q-5 13 -5 29q0 46 40 114q53 90 157 187q96 94 262 193q154 92 334 151q287 84 517 84q122 1 228 -23q306 -68 371 -270q14 -41 14 -83q0 -103 -83 -210q-113 -147 -426 -253q-92 -31 -418 -101q-227 -590 -258 -639q-17 -24 -25 -24q-18 0 -58 74q-41 72 -63 174 q-9 41 -9 84q0 61 20 124q66 176 348 258q160 412 168 430q6 16 22.5 16.5t27.5 -12t3 -28.5q-20 -45 -152 -391q270 57 375 90q250 82 377 213q93 94 93 192q0 34 -11 68q-29 86 -118 148t-223 90q-87 18 -194 18q-57 0 -123 -6q-184 -16 -385 -78q-166 -55 -321 -148 q-150 -90 -246 -178q-94 -88 -144 -164q-42 -63 -42 -97q0 -7 2 -13q6 -21 45 -21q41 0 117 23q29 10 34 -21q6 -29 -18 -36q-80 -26 -133 -26q-82 0 -100 62zM676 250q-16 -42 -16 -93q0 -106 69 -249q55 133 217 553q-80 -20 -164 -80q-78 -57 -106 -131z" />
<glyph unicode="Q" horiz-adv-x="1239" d="M6 887q18 96 107 215q84 115 209 219q117 100 270 162q121 52 227 52q27 0 53 -3q164 -16 254.5 -118.5t94.5 -274.5v-23q0 -248 -168 -543q-174 -303 -435 -458q154 -254 386 -267q16 0 23 -14t-0.5 -29.5t-25.5 -15.5h-2q-262 14 -432 297q-106 -55 -223 -74 q-31 -5 -58 -5q-167 0 -182 210q-2 21 -2 43q0 182 103 430q76 186 133 205q2 2 4 2q5 1 10 1q28 0 37 -40q74 -457 199 -690q242 147 411 434q162 275 162 518v17q-8 305 -295 336q-19 2 -38 2q-138 0 -300 -89q-180 -100 -313 -247q-129 -147 -149 -262q-4 -18 -4 -34 q0 -75 77 -98q16 -4 19.5 -19t-8 -28.5t-27.5 -9.5q-121 38 -121 154q0 21 4 45zM180 139q32 -72 117 -72q18 0 39 3q98 14 201 69q-129 246 -201 680q-47 -41 -111 -231q-69 -198 -69 -325q0 -74 24 -124z" />
<glyph unicode="R" horiz-adv-x="1482" d="M-53 668q74 180 383 403q313 227 608 242q25 1 49 2q293 0 391 -182q42 -76 42 -175q0 -37 -6 -77q-21 -148 -118 -281q-80 -111 -182 -175.5t-209 -70.5q117 -84 301 -184q180 -100 402 -174q139 -47 229 -47q52 0 88 16q16 6 29.5 -4t12.5 -27.5t-19 -23.5 q-44 -19 -107 -19q-154 0 -397 107q-252 106 -424 211q-176 106 -213 149q-18 20 -7 41t36 17q28 -5 55 -5q88 0 172 50q111 68 184 172q85 121 107 251q7 40 7 76q0 82 -34 144q-80 151 -333 151q-26 0 -54 -2q-145 -10 -303 -77q-160 -66 -289 -164q-127 -94 -221 -193.5 t-125 -173.5q-20 -45 -6 -59q10 -15 41 -15q42 0 121 27q29 10 35 -20q6 -29 -19 -37q-81 -25 -135 -25q-58 0 -86 29q-21 22 -21 56q0 29 15 67zM506 72q-1 4 -1 9q1 51 57 247q62 215 159 444q102 229 178 262q16 8 28.5 -2t11.5 -27.5t-15 -25.5q-68 -31 -156 -242 q-84 -201 -158 -452l45 67q20 20 42 3t5 -40q-61 -82 -118 -219q-18 -39 -49 -49q-23 -10 -29 25z" />
<glyph unicode="S" horiz-adv-x="1071" d="M8 1004q29 88 158 170q135 84 301 133q162 49 356 71q64 7 122 7q111 0 200 -25q127 -35 133 -98v-6q0 -71 -139 -140q-16 -8 -29.5 2t-12.5 24.5t15 24.5q39 20 65.5 40t35 31t6.5 17q0 23 -89 50q-83 26 -185 26q-57 0 -120 -8q-174 -18 -338 -68q-164 -51 -280 -125 q-123 -76 -144 -143q-2 -10 -2 -19q0 -38 38 -71q48 -41 134 -70l80 -24q43 -12 93 -29q8 -2 22 -7t33.5 -12t36.5 -14q63 -23 94 -39q127 -66 158 -100q101 -101 101 -208q0 -11 -1 -21q2 0 21.5 6t42 12t34.5 8q18 4 28.5 -9t6.5 -28.5t-20 -19.5q-100 -25 -121 -33 q-37 -150 -172 -254q-98 -74 -198 -74q-38 0 -77 11q-98 27 -98 94q2 125 494 270q2 199 -209 291q-84 39 -127 51q-70 25 -133 41l-107 33q-214 73 -214 188q0 21 7 44zM356 86q0 -20 56 -39q30 -9 61 -9q80 0 156 60q108 84 147 193q-188 -57 -287 -107q-106 -55 -118 -69 q-14 -16 -15 -29z" />
<glyph unicode="T" horiz-adv-x="1236" d="M8 723q33 100 336 276q307 180 723 314q27 113 35 137q4 18 19.5 21.5t28.5 -9t9 -28.5l-26 -103q346 104 690 148q16 2 26.5 -11.5t4 -29t-22.5 -17.5q-365 -45 -713 -153q-119 -518 -227 -1100q209 645 276 690q27 16 41.5 -7.5t-8.5 -41.5q-51 -37 -278 -737 q-41 -135 -76 -230q-10 -29 -31 -28q-29 0 -31 26v9q0 81 88 532v4q59 313 181 860q-367 -121 -615 -262q-168 -94 -271.5 -174t-103.5 -109q61 0 152 29q29 10 35 -20q8 -27 -17 -37q-60 -28 -143 -28h-16q-72 2 -72 48q0 14 6 31z" />
<glyph unicode="U" horiz-adv-x="1169" d="M10 1116q-9 17 -9 37q0 65 91 160q88 96 199 160q78 47 135 48q25 0 45 -10q57 -26 57 -112v-6q-2 -115 -155 -576q-143 -428 -143 -537q0 -25 8 -34h20q135 41 385 348q117 141 203 256q14 20 53 71.5t77 103.5t75 103q141 199 209 279q35 25 47 0t-4 -43 q-25 -33 -101 -188q-74 -156 -160 -369q-88 -225 -124 -404q-20 -95 -20 -169t20 -128q34 -65 110 -65h2q18 0 25.5 -14.5t0 -28.5t-25.5 -14q-154 0 -184 157q-9 41 -9 92q0 128 56 320q82 274 205 541q-106 -145 -215 -291q-84 -111 -209 -264q-246 -301 -400 -349 q-20 -6 -36 -6q-24 0 -40 16q-24 24 -24 82v9q4 121 135 520l8 27q150 434 152 559v8q0 43 -20 51q-10 4 -22 4q-42 0 -116 -43q-92 -53 -176 -143q-76 -85 -76 -121q0 -6 2 -10q6 -12 36 -11q16 0 40 3q18 2 27.5 -12.5t3.5 -30t-25 -17.5t-36 -2q-73 0 -97 43z" />
<glyph unicode="V" horiz-adv-x="731" d="M2 885q6 268 72 391q16 23 40.5 10.5t10.5 -39.5q-51 -96 -62 -307q-4 -73 -4 -149q0 -296 56 -633q418 883 1327 1325q16 8 29.5 -2.5t13.5 -24.5t-17 -24q-899 -438 -1310 -1319q-20 -47 -30 -60.5t-24 -13.5q-29 0 -32 29q-25 125 -52 340q-19 170 -19 383q0 46 1 94z " />
<glyph unicode="W" horiz-adv-x="1509" d="M2 125q-1 27 -1 57q0 169 48 430q59 319 135 576q80 258 129 289q27 14 40.5 -9.5t-9.5 -40.5q-33 -27 -108 -274q-78 -260 -134 -567q-42 -233 -41 -388q0 -57 5 -104q8 -90 38 -110q72 39 482 784q266 483 354 602q14 20 36.5 10t16.5 -32q-18 -61 -47 -242 q-31 -213 -53 -410q-23 -207 -27 -393q0 -8 -1 -17q0 -159 38 -182h3q25 0 81 80q264 375 385 815q85 311 85 630q0 126 -13 253q-2 27 24 31q29 4 33 -25q14 -130 14 -261q0 -320 -85 -642q-119 -449 -394 -835q-78 -105 -131 -105q-96 0 -96 289q0 286 94 854q0 4 2 14 t2 15q-63 -100 -270 -478q-256 -465 -377 -651q-109 -166 -158 -166q-86 0 -100 203z" />
<glyph unicode="X" horiz-adv-x="1069" d="M-135 -279q106 274 289 560q184 289 413 524q27 272 74 405q4 18 19.5 20.5t27.5 -9t8 -29.5q-35 -102 -63 -324q285 279 600 418q234 105 467 105q81 0 162 -13q18 -2 22 -17t-5 -28.5t-28 -11.5q-72 11 -145 11q-238 0 -479 -118q-315 -150 -606 -444 q-12 -130 -12 -252q0 -158 20 -301q35 -244 155 -303q30 -14 69 -14q67 0 161 43q150 70 274 166q25 14 39 -9q16 -25 -4 -39q-287 -219 -473 -219q-51 0 -90 19q-96 45 -148 184q-60 162 -60 451q0 97 7 209q-203 -219 -377 -490q-164 -260 -264 -514q-6 -16 -21.5 -18 t-26.5 10t-5 28z" />
<glyph unicode="Y" horiz-adv-x="1112" d="M25 436q-24 38 -24 104q0 91 47 235q79 247 290 677q6 16 22.5 17t27.5 -12t3 -30l-53 -112l-59 -125q-49 -104 -66 -148l-57 -139q-43 -104 -86 -262q-13 -56 -13 -98q0 -48 17 -76q16 -23 51 -23q80 0 287 199q215 203 407 434q203 240 271 361q14 37 37 37q6 0 12 -2 q29 -10 10 -48l-4 -8q-39 -90 -283 -989q29 14 80 45q16 10 29.5 1t13.5 -24.5t-12 -27.5q-78 -45 -133 -72q-106 -377 -181 -556t-139 -197q-9 -4 -19 -4q-22 0 -42 22q-45 45 -61 151q-6 36 -6 74q0 75 22 160q33 129 125 221q66 68 252 168q66 238 106 399 q76 283 127 457q-225 -299 -500 -577q-279 -283 -399 -283q-68 0 -100 51zM454 -220q11 -87 48 -124q73 0 266 653q-131 -72 -188 -129q-78 -82 -109 -194q-19 -86 -19 -155q0 -27 2 -51z" />
<glyph unicode="Z" horiz-adv-x="1341" d="M10 535q-8 13 -8 30q0 54 84 148q133 145 397 334q260 188 549 321q193 89 306 89q52 0 87 -19q66 -33 66 -122q0 -32 -8 -71q-18 -74 -424 -610q-455 -602 -500 -713q16 6 33 21q190 125 575 172q257 31 499 31q129 0 253 -9q354 -20 592 -88q16 -4 19 -19.5t-8 -27.5 t-28 -8q-238 66 -606 88q-104 6 -211 6q-251 0 -516 -33q-356 -45 -536 -161q-59 -40 -92 -40q-19 0 -29 13q-9 9 -9 26q0 48 70 158q94 147 447 619q399 532 411 587q9 35 9 61q0 47 -29 64q-26 18 -70 18q-102 0 -303 -97q-297 -143 -588 -361q-143 -109 -233 -192 q-149 -140 -148 -180v-5q7 -5 24 -6q46 0 165 39q25 8 35 -20q8 -27 -17 -37q-110 -41 -175 -41q-60 0 -83 35z" />
<glyph unicode="[" horiz-adv-x="1064" d="M23 -369l495 1729q8 14 27 14l469 23q29 0 29.5 -28t-25.5 -32l-445 -20l-477 -1669h477q29 0 29 -29q0 -31 -29 -31h-524q-16 0 -23.5 14.5t-2.5 28.5z" />
<glyph unicode="\" horiz-adv-x="831" d="M25 1499q-16 25 16 35q27 8 39 -12l727 -1647q10 -29 -16 -37q-25 -12 -37 12z" />
<glyph unicode="]" horiz-adv-x="1064" d="M21 -384q-1 28 26 32l445 20l477 1669h-477q-29 0 -29 29q0 31 29 31h524q16 0 23.5 -14.5t2.5 -28.5l-495 -1729q-8 -14 -27 -14l-469 -23q-29 0 -30 28z" />
<glyph unicode="^" horiz-adv-x="675" d="M29 989q-14 20 2 37q436 436 450 457q14 16 34 10t20 -27q10 -213 38.5 -343t63.5 -144q16 -6 16 -22.5t-12.5 -27.5t-26.5 -3q-109 43 -135 469l-407 -410q-25 -25 -43 4z" />
<glyph unicode="_" horiz-adv-x="890" d="M23 -156q0 29 28 29h791q31 0 26 -29q1 -30 -26 -30h-791q-29 0 -28 30z" />
<glyph unicode="`" horiz-adv-x="227" d="M29 1026.5q16 17.5 34 5.5l136 -108q16 -16 0.5 -33.5t-33.5 -5.5l-135 108q-18 16 -2 33.5z" />
<glyph unicode="a" horiz-adv-x="659" d="M-41 422q-11 24 -11 56q0 56 36 138q56 126 135 170q30 16 55 16t45 -16q36 -27 36 -78q0 -8 -1 -16q-2 -16 -17.5 -22t-28.5 2t-11 26q4 31 -9.5 40.5t-40.5 -5.5q-59 -33 -108 -137q-33 -74 -33 -118q0 -19 6 -32q8 -14 47 0q43 18 107 127q35 57 65 60q18 2 25 -25 q2 -2 2 -4q33 -123 86 -139q12 -3 25 -3q97 0 290 187q14 14 30 8t19 -21t-8 -28q-210 -205 -333 -205q-20 0 -37 5q-74 23 -115 131q-70 -123 -133 -148q-30 -10 -53 -10q-48 0 -70 41z" />
<glyph unicode="b" horiz-adv-x="518" d="M-59 352q2 164 108 453q109 289 211 397q18 20 41 2q20 -20 2 -43q-74 -76 -153 -264q-80 -190 -121 -365q86 121 157 152q26 11 47 11q34 0 56 -29q23 -31 22 -83q0 -24 -4 -51q119 27 211 117q23 23 41.5 0.5t-0.5 -41.5q-63 -63 -138 -99t-128 -38q-25 -57 -41 -80 q-28 -29 -54 -29q-13 0 -26 7q-31 16 -46 56q-9 24 -9 46q0 15 4 29q20 50 76 50q10 0 20 -1q2 0 7 -2t11.5 -4t12.5 -4q4 28 4 48q0 34 -12 46q-8 8 -29 -4q-57 -27 -131 -125t-80 -148q-2 -23 -16.5 -34t-28.5 -1.5t-14 31.5zM178 481q-6 -14 2 -34.5t19 -24.5q16 6 34 59 l-10 2q-39 16 -45 -2z" />
<glyph unicode="c" horiz-adv-x="520" d="M-68 420q-7 25 -7 50q0 56 34 116q45 90 131 135q22 11 40 11q22 0 38 -16q18 -18 18 -43q0 -16 -8 -36q-8 -27 -39 -16q-25 12 -16 38q4 8 4 15q-63 -26 -111 -100q-33 -51 -32 -98q0 -21 6 -40q12 -50 75 -50q11 0 23 1q178 18 432 262q23 23 41.5 0.5t-0.5 -41.5 q-252 -248 -465 -276q-12 -1 -23 -1q-44 1 -80 19q-46 24 -61 70z" />
<glyph unicode="d" horiz-adv-x="782" d="M-44 530q3 58 30 97q16 29 49 57q35 32 111 52q46 12 97 12q34 0 70 -5q51 100 179 447q4 18 20 21t28.5 -9t6.5 -28l-35 -113q-122 -366 -122 -512q0 -24 3 -43q14 -68 68 -68q9 0 20 2q90 19 303 209q6 6 12.5 8t11.5 2t9 -3t8 -7t6.5 -9t2.5 -10t-2.5 -11.5 t-6.5 -10.5q-229 -209 -333 -223q-17 -2 -32 -2q-62 0 -95 39q-33 42 -34 118v12q0 68 11 120q-133 -238 -264 -269q-14 -3 -26 -3q-42 0 -67 32q-29 37 -29 89v9zM17.5 543q-7.5 -35 3 -62.5t42.5 -19.5q104 23 222 227q-26 3 -50 3q-139 0 -198 -95q-12 -18 -19.5 -53z " />
<glyph unicode="e" horiz-adv-x="518" d="M-68 412q-7 25 -7 51q-1 57 33 121q50 94 122 135q25 13 45 13q33 0 53 -36q15 -20 15 -52q0 -27 -11 -64q-23 -76 -73 -103q-63 -33 -121 -37q7 -52 74 -52q11 0 24 1q162 14 432 260q23 23 41.5 0.5t-0.5 -41.5q-276 -254 -465 -276q-15 -2 -29 -2q-38 0 -72 16 q-46 22 -61 66zM-10 500q41 2 90 28q31 16 47 68q8 24 8 42t-8 30q-9 8 -21 0q-37 -20 -70.5 -68.5t-45.5 -99.5z" />
<glyph unicode="f" horiz-adv-x="380" d="M-125 -264q-19 57 -19 149q0 155 54 410q82 408 215 696q6 16 22.5 17.5t27.5 -12t3 -29.5q-131 -285 -211 -682q-53 -254 -53 -400q0 -81 16 -129q13 -42 33 -42q14 0 33 24q27 33 31 72q3 28 3 67q0 87 -16 227q-10 91 -10 152q0 76 16 106q8 8 60 44q59 41 147 110 q99 78 154 133q8 8 18.5 9t16.5 -4t11 -12t3 -17.5t-8 -16.5q-23 -23 -66 -58.5t-90 -71.5t-90 -68.5t-73.5 -56t-32.5 -23.5q-7 -19 -7 -64q0 -57 11 -155q16 -124 16 -218q0 -49 -4 -90q-12 -102 -90 -137q-20 -9 -37 -9q-52 0 -84 79z" />
<glyph unicode="g" horiz-adv-x="692" d="M-326 -598q-13 35 -13 78q0 74 38 174q55 154 117 248q74 115 186 215q115 98 272 209q39 181 39 299q0 80 -18 131q-12 37 -27 47q-49 -362 -137 -402q-12 -5 -24 -5q-20 0 -37 14q-59 47 -72 178q-3 32 -3 61q0 96 34 172q59 136 177 136q17 0 36 -3q18 -2 23 -17 t-5 -29.5t-27 -12.5q-13 2 -25 2q-83 0 -126 -98q-30 -77 -30 -165q0 -19 1 -38q8 -106 51 -141q29 8 70 167.5t41 223.5q0 31 33 31q74 -12 104 -103q18 -53 18 -140q0 -106 -26 -261q213 147 348 276q8 8 18.5 9t16.5 -4t11 -12t3 -17.5t-8 -16.5q-156 -145 -407 -317 q-57 -266 -172 -524q-109 -258 -226 -377q-31 -31 -67.5 -48.5t-72.5 -20.5h-9q-31 0 -57 17q-31 21 -48 64zM-270 -578q12 -39 44.5 -43t61.5 12.5t51 39.5q102 104 203 333q105 238 164 476q-270 -193 -389 -371q-61 -94 -109 -231q-34 -96 -34 -160q0 -32 8 -56z" />
<glyph unicode="h" horiz-adv-x="763" d="M-55 289q96 772 194 948q16 29 41 12q25 -14 10 -41q-72 -129 -137 -559q47 135 80 183.5t70 48.5q41 0 78 -84q39 -88 59 -179q25 -92 72 -151q26 -33 60 -33q24 0 52 17q72 49 240 198q23 18 41 -2t-2 -41q-150 -143 -248 -205q-43 -27 -79 -29q-4 0 -7 -1 q-31 -1 -57 19q-28 22 -50 52.5t-45 77.5q-18 45 -41.5 113.5t-41 117t-33.5 68.5q-53 -14 -199 -540q-4 -16 -19.5 -20.5t-27.5 5t-10 25.5z" />
<glyph unicode="i" horiz-adv-x="536" d="M-4 606q-18 23 2 41q31 31 56 31q9 0 16 -4q23 -11 23 -62q0 -36 -11 -92q-16 -95 -15 -144q0 -43 11 -52q16 -8 49 6q119 53 410 319q23 20 42 1t-1 -42q-115 -115 -250 -217q-131 -96 -176 -115q-34 -16 -62 -16t-49 16q-33 28 -35 92v12q0 61 17 150q12 63 12 72 q-20 -14 -39 4zM0 786q0 38 33 54q16 8 32.5 8t32.5 -8q32 -16 33 -54q0 -25 -19.5 -43t-46 -18t-46 18t-19.5 43z" />
<glyph unicode="j" horiz-adv-x="585" d="M-266 -422q-1 16 -1 33q0 78 23 174q31 117 124 245t231 226l75 55q-2 84 -22 150q-41 137 -141 141q-18 0 -25.5 14.5t-0.5 28.5t26 14q66 0 119 -45t79 -137q14 -45 21 -123q192 150 344 295q23 23 41 0.5t0 -41.5q-139 -135 -381 -325v-21q0 -241 -86 -506 q-88 -272 -211 -358q-37 -25 -74 -25q-57 0 -96 56.5t-45 148.5zM-182 -219q-28 -98 -28 -174q0 -88 38 -144q22 -31 48 -31q19 0 40 15q98 66 180 313q88 253 90 480l-41 -31q-125 -90 -213 -208t-114 -220zM-43 786q0 27 19.5 45.5t48.5 18.5q27 0 45 -18.5t18 -45.5 q0 -25 -18 -43t-45 -18q-29 0 -48.5 18.5t-19.5 42.5z" />
<glyph unicode="k" horiz-adv-x="606" d="M-98 305q37 109 98 350q76 330 154 494q8 27 39 14q27 -8 14 -39q-76 -168 -150 -483l-20 -82q113 156 203 201q28 12 49 12q31 0 47 -27q16 -26 16 -56q0 -12 -2 -26q-10 -45 -43 -77q-37 -39 -83 -39h-5q29 -72 70 -84q10 -3 21 -3q91 0 296 189q23 23 41.5 0.5 t-0.5 -41.5q-224 -207 -340 -207q-18 0 -33 5q-90 29 -129 180q-2 4 2 18q-117 -133 -190 -319q-6 -18 -21.5 -19.5t-26.5 12t-7 27.5zM160 618q16 6 30 0q19 -13 36 -13q21 0 38 20q18 18 25.5 49t-0.5 37q-4 4 -25 -4q-45 -18 -104 -89z" />
<glyph unicode="l" horiz-adv-x="626" d="M-23 602q10 178 58 365q49 188 108 311q33 66 72 104.5t71.5 48t55.5 8.5t35 -9q57 -33 71 -114q4 -23 3 -47q0 -63 -25 -136q-84 -254 -387 -533v-31q0 -143 35 -182q17 -21 45 -21q11 0 24 3q115 25 254 108q143 84 232 172q14 12 29.5 6t18.5 -20t-7 -27 q-98 -98 -244 -186q-143 -88 -272 -111q-17 -3 -32 -3q-58 0 -95 42q-51 69 -51 208q0 21 1 44zM47 688q246 233 324 463q10 41 16 80q2 18 2 35q0 34 -8 65q-12 47 -47 53q-4 1 -8 1q-25 -1 -59 -31q-40 -36 -72 -105q-100 -211 -148 -561z" />
<glyph unicode="m" horiz-adv-x="1538" d="M-16 397q-10 12 -10 40q0 39 20 110q0 2 6 23.5t8 29.5q-10 4 -16 12q-12 20 10 39q27 23 53 2q18 -18 13 -49q0 -8 -17 -74q-20 -59 -20 -86l61 41q195 129 295 148q11 2 21 2q31 0 53 -19q24 -22 24 -92q0 -28 -4 -63q-6 -37 -6 -57q0 -16 4 -21q29 2 166 135 q55 55 109 105q50 45 114 77q54 26 97 26q8 0 16 -1q53 -6 94 -48t62.5 -90t50.5 -91t59 -47q4 -1 8 -1q71 0 283 201q8 8 18.5 9t16.5 -4t11 -12t3 -17.5t-8 -16.5q-135 -129 -213 -178q-65 -41 -110 -41q-9 0 -17 2q-45 10 -77 49t-61.5 97.5t-51.5 83.5q-34 44 -83 44 q-39 0 -89 -28q-61 -37 -91 -64l-100 -96l-14 -14l-37 -39q-66 -57 -86 -72q-44 -25 -74 -25q-27 0 -43 19q-15 17 -15 63q0 26 5 60q5 44 5 69q0 31 -7 35q-2 2 -10.5 3.5t-12.5 -1.5q-66 -12 -272 -141q-39 -29 -62 -39q-25 -13 -44 -13q-20 0 -35 15z" />
<glyph unicode="n" horiz-adv-x="917" d="M-14 399q4 43 16 80q27 82 27 111q0 8 -2 12q-29 -10 -33 21q-6 25 24.5 37t48 -4.5t15.5 -53.5q0 -63 -23 -141q-8 -18 -10 -35q12 10 45 35.5t45 36.5l84 67q159 127 236 128q17 0 30 -7q10 -6 17.5 -13t12.5 -17.5t7 -19.5t3 -24.5t1 -23.5v-26.5v-27t-2 -25.5 t-2 -30.5t2 -28t10.5 -21.5t22.5 -7q121 14 359 227q8 8 18 9t16.5 -4t11.5 -12t3 -17.5t-8 -16.5q-88 -84 -205 -162q-111 -72 -189 -81q-6 -1 -12 -1q-56 0 -74 52q-13 38 -13 79q0 21 3 42q2 27 2 47q0 46 -10 51q-4 2 -10 2q-48 0 -195 -119q-201 -160 -211 -166 q-21 -11 -35 -11q-27 0 -27 43q0 7 1 15z" />
<glyph unicode="o" horiz-adv-x="618" d="M-68 504q16 98 68 143q33 31 72 32q32 0 67 -22q16 -10 14.5 -27.5t-15 -23.5t-29.5 2q-17 11 -33 11q-19 0 -37 -15q-37 -35 -49 -110q-4 -27 -4 -50q0 -42 14 -71q14 -31 47 -25q81 18 81 180q0 15 -1 31q0 30 30 30q18 0 48 -11q79 -32 155 -32q136 0 261 103 q8 8 18 9t16.5 -4t11.5 -12t3 -17.5t-8 -16.5q-145 -121 -305 -121q-84 0 -171 33q0 -199 -127 -229q-11 -3 -23 -3q-22 0 -42 10q-32 15 -47 46q-21 41 -21 96q0 30 6 64z" />
<glyph unicode="p" horiz-adv-x="833" d="M-188 -223q0 51 102 419q88 319 88 397q0 13 -2 19q-14 20 6 39q25 16 43 -6q9 -12 9 -46q0 -41 -13 -112q-20 -127 -104 -424q164 338 306 487q111 116 207 116q27 0 52 -9q49 -14 49 -71q0 -53 -25 -86q165 22 304 149q23 23 41 0.5t-1 -41.5q-154 -158 -387 -172 q-112 -142 -174 -142q-6 0 -12 1q-42 9 -42 64q0 33 15 83q14 53 74 54q18 2 61.5 0t47.5 -2q43 61 43 89q0 15 -13 21q-8 0 -36 4q-4 1 -9 1q-35 0 -114 -62q-66 -49 -187 -238q-102 -154 -258 -510q-4 -35 -35 -49q-35 -12 -36 27zM319 354q33 16 91 80h-38.5t-21.5 1 t-10 1h-6q-14 -72 -15 -82z" />
<glyph unicode="q" horiz-adv-x="595" d="M-49 477q-1 8 -1 16q0 89 60 160q41 49 96 54h5q57 0 85 -45q16 -28 16 -57q0 -22 -9 -46q-6 -16 -22.5 -17t-28 12t-5.5 30q12 23 0 44t-38 21q-51 0 -84 -82q-16 -42 -16 -72q0 -29 14 -46q10 -10 22 -11q25 0 96 49q28 28 57 28q5 0 10 -1q27 -5 27 -36q0 -9 -2 -19 l-43 -217l15 28q45 78 393 379q6 6 13 8t12.5 1t10.5 -5t8 -9t4 -11t-1 -13.5t-6 -11.5q-41 -39 -129 -114q-16 -14 -107 -97q-117 -104 -147 -155q-57 -104 -133 -385q-13 -44 -34 -44q-5 0 -11 3q-26 10 -26 49q0 7 1 16l53 254l64 301q-79 -57 -122 -57h-3q-84 2 -94 98z " />
<glyph unicode="r" horiz-adv-x="563" d="M-129 659v7q0 49 80 98q50 30 86 30q25 0 43 -14q20 -25 20 -54v-10q-4 -34 -26 -61q43 -4 64.5 -21.5t8.5 -45.5q-37 -70 -49 -134q-5 -25 -5 -43q0 -28 11 -40q10 -7 25 -7q46 0 145 62q125 78 289 223q23 23 41.5 0.5t-0.5 -41.5q-84 -84 -235 -196 q-145 -104 -242 -105q-51 0 -75 33q-20 27 -20 66q0 10 1 20q16 106 49 170q-37 4 -107 4q-98 8 -104 59zM-68 670q41 -8 70 -8q41 42 41 66q0 5 -2 9q-70 -16 -109 -67z" />
<glyph unicode="s" horiz-adv-x="458" d="M-35.5 546q-1.5 25 8.5 60q14 31 40 55.5t48 28.5q16 2 27.5 -11t6.5 -28.5t-21 -17.5q-25 -4 -41 -47q-5 -14 -5 -29q0 -20 9 -43q14 -33 53 -82q35 -41 45 -55q222 176 326 272q23 23 41 0.5t0 -41.5q-78 -76 -336 -282q25 -51 25 -95q0 -10 -1 -20q-12 -96 -92 -111 q-16 -3 -30 -3q-47 0 -76 36q-18 23 -18 49q0 48 57 109q12 12 59 49q-33 49 -78 98q-18 25 -30 54q-16 29 -17.5 54zM47 158q12 -9 24 -9q17 0 35 19q20 18 25 49v7q0 26 -12 65q-35 -25 -45 -39q-39 -40 -40 -67q1 -15 13 -25z" />
<glyph unicode="t" horiz-adv-x="540" d="M-182.5 980q0.5 30 28.5 30q53 0 99.5 -1t69 -2t24.5 -1q16 121 16 139t15.5 24.5t30 -2t14.5 -24.5q0 -18 -15 -135q109 2 152 20q27 14 38 -11.5t-11 -41.5q-41 -20 -187 -27q-37 -236 -37 -377q0 -159 47 -196q17 -15 41 -15q41 0 101 40q96 64 299 249q8 8 18 9 t16.5 -4t11.5 -12t3 -17.5t-8 -16.5q-29 -27 -70 -63.5t-66.5 -59t-44.5 -39.5q-59 -53 -135 -98t-129 -45q-68 0 -99.5 46t-43.5 132q-4 26 -4 67q0 65 10 167l14 125l15 108q-160 0 -185 2q-29 0 -28.5 30z" />
<glyph unicode="u" horiz-adv-x="772" d="M-8 623q-6 25 22 34q31 5 44 -25q9 -22 9 -66q0 -14 -1 -29v-9q-2 -34 -2 -59q0 -67 12 -74q9 -5 19 -5q45 0 106 102q72 121 88 186q15 50 38 50q7 0 15 -5q29 -23 29 -74v-26v-9q0 -47 1 -71.5t6 -60.5t18.5 -51t33.5 -13q109 16 342 231q14 14 29.5 8t18.5 -21t-7 -28 q-256 -232 -377 -250q-10 -1 -18 -1q-65 0 -88 77q-14 59 -19 137q-90 -190 -184 -229q-16 -8 -39 -8q-84 0 -84 151q0 22 2 47q2 14 2 70q-12 4 -16 21z" />
<glyph unicode="v" horiz-adv-x="731" d="M-10 627q0 12 10 22t20 10q25 0 39 -32q23 -39 72 -156q16 -37 16 -39q43 127 46 133q31 76 83 99q16 5 33 5q33 0 72 -20q114 -62 201.5 -62t148.5 62q20 20 40 1t1 -42q-82 -81 -191 -81q-102 0 -229 71q-35 16 -53 10q-25 -8 -45.5 -51t-31.5 -90t-30.5 -84t-39.5 -33 q-29 0 -56 49q-25 45 -51 117q-23 66 -37 84q-18 10 -18 27z" />
<glyph unicode="w" horiz-adv-x="993" d="M0 649q20 23 41 2q29 -29 55 -188q25 -190 54 -203q35 12 61 72l25 53q20 47 36 92q25 68 39.5 88.5t36.5 18.5q41 -2 43 -74q25 -283 27 -287q2 2 6 10.5t11 27t16 32.5l43 92q4 12 45 78q50 71 109 71q11 0 22 -2q32 -8 65 -8q129 0 258 125q6 6 13.5 8t12.5 1t10 -5 t9 -9t5 -11t-1 -12.5t-8 -12.5q-144 -142 -299 -142q-39 0 -80 9q-4 1 -9 1q-35 0 -75 -73q-27 -47 -67 -135l-31 -67q-28 -54 -51 -56h-8q-18 0 -29.5 7.5t-19 35t-11.5 60.5t-10 104l-10 121q-68 -172 -105 -219q-41 -53 -82 -53l-16 2q-35 12 -55.5 66.5t-38.5 183.5 q-23 141 -35 153q-23 23 -2 43z" />
<glyph unicode="x" horiz-adv-x="667" d="M-25 246q37 139 156 258q-78 96 -96 100q-27 -16 -41 6.5t8 40.5q15 13 32 13q15 0 32 -11q31 -18 67 -63q37 -43 43 -45q66 55 133 88q27 10 39 -14.5t-12 -38.5q-66 -35 -121 -78q88 -96 142 -96q7 0 14 2q39 12 98 61q62 53 199 180q14 14 29.5 8t18.5 -21t-7 -28 q-145 -135 -205 -184q-70 -57 -117 -72q-17 -6 -35 -6q-78 0 -182 115q-106 -106 -137 -230q-4 -16 -19.5 -19t-29 7t-9.5 27z" />
<glyph unicode="y" horiz-adv-x="765" d="M-76 -459q-11 46 -11 98q0 63 17 133q31 128 119 248q55 74 113 130q66 61 174 141q4 147 4 153q-82 -211 -203 -211q-115 0 -115 185q0 46 7 102q4 70 4 80q-20 -8 -35 8q-20 25 4 43q23 19 43 19q9 0 18 -4q28 -14 28 -84q0 -28 -5 -66q-6 -44 -6 -88q0 -26 2 -53 q8 -76 45 -82q6 -1 12 -1q80 0 133 144q37 96 74 230q6 20 22.5 25t29 -5t8.5 -29q-4 -45 -9 -170q0 -125 -2 -151q146 112 371 313q14 14 29.5 8t18.5 -21t-7 -28q-178 -176 -414 -348q-31 -621 -155 -801q-71 -95 -145 -95q-20 0 -40 7q-96 35 -129 170zM-18 -446 q25 -104 84 -125q12 -4 24 -4q48 0 98 67q111 170 144 723q-119 -70 -230 -223q-82 -111 -112 -226q-17 -68 -17 -129q0 -43 9 -83z" />
<glyph unicode="z" horiz-adv-x="643" d="M-231 -309q-5 18 -5 37q0 88 92 214q112 154 343 324q-36 58 -118 58h-13q-70 0 -82 32q-3 9 -3 17q1 23 23 50q32 36 131 114q141 109 152 139q-32 5 -61 5q-115 0 -187 -73q-23 -18 -41 0.5t0 40.5q45 45 123 69q67 20 128 20q10 0 21 -1q59 0 76 -41q2 -6 2 -12 q0 -43 -80 -113q-49 -43 -96 -79q-121 -102 -125 -109h13q132 0 182 -78q211 170 399 344q8 8 18.5 9t16.5 -4t11 -12t3 -17.5t-8 -16.5q-158 -154 -414 -358q10 -42 10 -88q0 -108 -55 -238q-78 -184 -194 -266q-43 -31 -97 -45q-24 -6 -47 -6q-28 0 -55 9q-49 17 -63 75z M-174 -297q8 -35 43 -40q9 -1 19 -1q26 0 50 10q34 14 58 31q104 84 174 231q53 115 53 218q0 28 -4 55q-104 -72 -252 -219q-75 -76 -115 -153q-29 -57 -30 -102q0 -16 4 -30z" />
<glyph unicode="{" horiz-adv-x="1277" d="M25 -317q10 72 38 174q33 113 52 161q6 16 27.5 70.5t35.5 93.5q10 27 -8 211q-33 127 53 117q100 -8 162 63q63 78 119 183q51 98 69 155l50 160q18 66 45 146q14 43 59 124q45 74 100 121q143 115 392 183q18 4 29.5 -9.5t8 -29t-21.5 -19.5q-281 -66 -416 -219 q-37 -37 -63 -98l-43 -99q-18 -53 -35 -116q-35 -121 -51 -166q-16 -53 -72 -160q-57 -111 -125 -192q-80 -98 -207 -86q4 -45 4 -52q25 -184 6 -237l-73 -193q-27 -78 -56 -186q-57 -229 19 -328q70 -84 274 -51q29 4 34.5 -23.5t-21.5 -35.5q-240 -41 -332 73 q-70 86 -53 265z" />
<glyph unicode="|" horiz-adv-x="425" d="M23 -442l323 2015q2 12 12.5 20.5t20.5 3.5q29 -4 24 -34l-321 -2016q-4 -18 -20.5 -22t-28.5 6.5t-10 26.5z" />
<glyph unicode="}" horiz-adv-x="1277" d="M21.5 -633.5q3.5 15.5 21.5 19.5q281 66 416 219q37 37 63 98q31 70 41 98q14 37 37 117l49 166q27 72 72 160q53 104 127 192q80 98 207 86q-4 45 -4 51q-25 184 -7 238q57 147 72 193q29 76 55 186q61 229 -16 328q-70 84 -274 51q-29 -4 -34.5 23.5t21.5 35.5 q240 39 332 -74q72 -88 51 -264q-6 -66 -37 -174q-25 -86 -53 -162l-61 -163q-10 -27 8 -211q33 -127 -53 -117q-100 8 -162 -64q-66 -80 -119 -184q-49 -92 -69 -154l-50 -159q-18 -66 -45 -146q-14 -47 -61 -125q-41 -74 -98 -120q-143 -115 -392 -183q-18 -4 -29.5 9.5 t-8 29z" />
<glyph unicode="~" horiz-adv-x="489" d="M25 528q27 49 67 64q57 14 73.5 13t84.5 -17q127 -47 162 49q8 27 36.5 16.5t18.5 -35.5q-35 -100 -107 -102q-63 -2 -124 14q-59 20 -98.5 14.5t-61.5 -44.5q-14 -25 -39.5 -12t-11.5 40z" />
<glyph unicode="&#xa1;" horiz-adv-x="520" d="M26.5 -460.5q-6.5 14.5 0.5 30.5q125 180 231 600q111 420 135 670q0 18 14.5 24t30 -2t15.5 -26q-29 -274 -140 -689q-111 -428 -239 -612q-10 -14 -25.5 -12t-22 16.5zM369 1001q-8 25 7 47.5t40 28.5q27 8 50 -4t32 -37q6 -27 -8.5 -49t-40.5 -31q-27 -6 -50.5 6.5 t-29.5 38.5z" />
<glyph unicode="&#xa2;" horiz-adv-x="520" d="M-68 420q-18 59 10.5 131t86.5 127l-2 174q8 27 34.5 22.5t22.5 -32.5l2 -123q2 0 4 2q49 25 78 -5t10 -79q-8 -27 -39 -16q-25 12 -16 38q4 8 4 15q-18 -6 -41 -25l4 -262q176 18 430 262q23 23 41.5 0.5t-0.5 -41.5q-252 -248 -465 -276l-4 -2l2 -131 q-4 -18 -20.5 -22.5t-28.5 6t-10 26.5l-2 125q-78 18 -101 86zM-10 436q8 -35 43 -45l-4 201q-62 -88 -39 -156z" />
<glyph unicode="&#xa3;" horiz-adv-x="1325" d="M21.5 123.5q-11.5 62.5 31.5 112.5q84 100 353 -33q29 74 96 334l-408 -11q-29 0 -28.5 27t26.5 31l424 10q8 37 16.5 71.5t14.5 59.5t8 33l37 149q27 106 47 158l47 123q55 133 125 184q63 47 130 34t101.5 -67.5t41 -122t-51.5 -126.5q-23 -18 -41 1t-2 42 q47 47 31 112q-14 68 -63.5 91.5t-110.5 -11.5q-92 -74 -160 -299q-35 -117 -55 -195q-18 -88 -56 -235l289 8q18 0 26.5 -14.5t2 -28.5t-24.5 -14l-305 -8q-68 -272 -104 -363l151 -76l127 -53q76 -27 125 -31q211 -16 395 117q16 10 31 2t15 -23.5t-15 -27.5 q-127 -74 -210 -102.5t-171 -22.5q-66 4 -108 12q-39 6 -117 35q-76 29 -115 49l-129 66h-2q-72 -160 -157 -195q-55 -25 -116 1t-95.5 80t-46 116.5zM98 197q-45 -61 19 -154q66 -90 139 -61q70 25 127 165q-100 49 -162 66q-88 29 -123 -16z" />
<glyph unicode="&#xa5;" horiz-adv-x="991" d="M26 130q-20 136 66 312q18 23 42 9.5t9 -39.5q-76 -152 -61.5 -267.5t104.5 -177.5q39 -39 107.5 -31.5t120.5 66.5q74 84 139 285l-262 -8q-29 0 -29 26.5t27 30.5l280 8q25 78 62 256l-301 -4q-29 0 -28 27.5t28 31.5l313 4q29 131 55 302l29 172q-293 -412 -489 -412 q-102 6 -136 94q-35 90 -6 211q47 217 121 356q14 27 39 11q25 -14 12 -39q-45 -86 -104 -301q-27 -106 -19 -189q12 -82 80 -84q106 -12 254 142q150 152 285 370q6 31 39 23q29 -10 20 -33l-6 -10q-23 -76 -61 -322l-51 -291l194 5q18 0 25.5 -14.5t1 -30t-24.5 -15.5 l-209 -4q-29 -145 -61 -254l260 10q18 0 26.5 -14t2 -28.5t-24.5 -14.5l-281 -10q-74 -229 -157 -326q-61 -70 -146.5 -83t-158.5 38q-106 76 -126 212z" />
<glyph unicode="&#xa8;" horiz-adv-x="329" d="M20 901q0 35 29 48.5t58.5 0t29.5 -48.5q0 -33 -28.5 -46t-58.5 0t-30 46zM193 901q0 35 28.5 48.5t58 0t29.5 -48.5q0 -33 -28.5 -46t-58 0t-29.5 46z" />
<glyph unicode="&#xad;" horiz-adv-x="872" d="M21 658.5q-1 25.5 26 29.5l776 33q29 0 29 -27.5t-27 -31.5l-774 -33h-2q-27 4 -28 29.5z" />
<glyph unicode="&#xb4;" horiz-adv-x="227" d="M24 898.5q-3 13.5 7 25.5l135 108q10 10 22.5 5t15.5 -17t-5 -27l-136 -108q-10 -10 -23 -5t-16 18.5z" />
<glyph unicode="&#xb8;" horiz-adv-x="251" d="M20 -139q0 14 12.5 21t25 1t14.5 -22q0 -29 47 -33q49 -4 57 20q14 29 -22 64q-35 31 -72 22q-27 -6 -40 1.5t-11 35.5q4 33 4 74q0 23 25.5 24t25.5 -24q0 -47 -2 -57q66 4 113 -47q51 -52 26 -113q-10 -37 -62 -48t-98.5 12.5t-42.5 68.5z" />
<glyph unicode="&#xbf;" horiz-adv-x="778" d="M23 -92q2 90 62 202.5t163 204.5q49 43 160 125l75 56q94 72 129 114q63 78 76 131q18 84 -4 170q-4 18 9.5 28.5t28.5 6.5t19 -20q35 -178 -32 -279q-59 -88 -117 -137l-72 -59l-78 -58q-106 -82 -155 -123q-94 -84 -148 -180q-96 -174 -37 -313q45 -88 170 -58 q147 41 230 166q86 127 86 265q-4 131 -74 145q-16 4 -19 19.5t7 28.5t26 9q117 -29 119 -200q2 -154 -96 -299q-96 -143 -264 -191q-166 -45 -236 86q-31 74 -28 160zM614 1047q-6 27 8.5 48t41.5 29q27 6 50 -6t29 -37q8 -25 -7 -48t-42 -29q-25 -8 -48 5t-32 38z" />
<glyph unicode="&#xc0;" d="M4 -90q55 94 174 346l90 195l99 190q72 129 118 197q51 74 136 172q80 98 161 164q203 156 418 215q49 14 56.5 -34t-7.5 -75l-194 -733l65 8q18 4 28.5 -9.5t6.5 -30.5t-20 -19q-84 -6 -97 -11q-82 -305 -118 -426q-39 -137 -60 -182q-15 -39 -33 -43q-10 0 -18 3t-11 8 t-5 15.5t-2 15.5v17.5v14.5q20 193 -66 334q-35 53 -88 98q-61 51 -86 63q-27 16 -76 39q-37 18 -48 35t1 27t33.5 17t50.5 11q111 4 242 5q178 4 239 8l199 755l8 29q-113 -35 -213 -92q-201 -115 -332 -276q-59 -74 -129 -168q-45 -63 -112 -191q-43 -78 -97 -184 l-86 -187q-96 -211 -174 -350q-14 -12 -29.5 -12t-23.5 13.5t0 27.5zM547 475q283 -150 303 -446q39 127 127 454q-403 -6 -430 -8zM1014 1579.5q16 17.5 35 5.5l135 -108q16 -16 0.5 -33.5t-33.5 -5.5l-135 108q-18 16 -2 33.5z" />
<glyph unicode="&#xc1;" d="M4 -90q55 94 174 346l90 195l99 190q72 129 118 197q51 74 136 172q80 98 161 164q203 156 418 215q49 14 56.5 -34t-7.5 -75l-194 -733l65 8q18 4 28.5 -9.5t6.5 -30.5t-20 -19q-84 -6 -97 -11q-82 -305 -118 -426q-39 -137 -60 -182q-15 -39 -33 -43q-10 0 -18 3t-11 8 t-5 15.5t-2 15.5v17.5v14.5q20 193 -66 334q-35 53 -88 98q-61 51 -86 63q-27 16 -76 39q-37 18 -48 35t1 27t33.5 17t50.5 11q111 4 242 5q178 4 239 8l199 755l8 29q-113 -35 -213 -92q-201 -115 -332 -276q-59 -74 -129 -168q-45 -63 -112 -191q-43 -78 -97 -184 l-86 -187q-96 -211 -174 -350q-14 -12 -29.5 -12t-23.5 13.5t0 27.5zM547 475q283 -150 303 -446q39 127 127 454q-403 -6 -430 -8zM974 1412.5q-3 13.5 7 25.5l135 108q10 10 22.5 5t15.5 -17t-5 -27l-135 -108q-10 -10 -23.5 -5t-16.5 18.5z" />
<glyph unicode="&#xc2;" d="M4 -90q55 94 174 346l90 195l99 190q72 129 118 197q51 74 136 172q80 98 161 164q203 156 418 215q49 14 56.5 -34t-7.5 -75l-194 -733l65 8q18 4 28.5 -9.5t6.5 -30.5t-20 -19q-84 -6 -97 -11q-82 -305 -118 -426q-39 -137 -60 -182q-15 -39 -33 -43q-10 0 -18 3t-11 8 t-5 15.5t-2 15.5v17.5v14.5q20 193 -66 334q-35 53 -88 98q-61 51 -86 63q-27 16 -76 39q-37 18 -48 35t1 27t33.5 17t50.5 11q111 4 242 5q178 4 239 8l199 755l8 29q-113 -35 -213 -92q-201 -115 -332 -276q-59 -74 -129 -168q-45 -63 -112 -191q-43 -78 -97 -184 l-86 -187q-96 -211 -174 -350q-14 -12 -29.5 -12t-23.5 13.5t0 27.5zM547 475q283 -150 303 -446q39 127 127 454q-403 -6 -430 -8zM945 1450q-3 12 5 27l127 102q22 29 45 0l127 -102q18 -16 2 -34t-34 -5l-117 94l-117 -94q-10 -10 -22.5 -5t-15.5 17z" />
<glyph unicode="&#xc3;" d="M4 -90q55 94 174 346l90 195l99 190q72 129 118 197q51 74 136 172q80 98 161 164q203 156 418 215q49 14 56.5 -34t-7.5 -75l-194 -733l65 8q18 4 28.5 -9.5t6.5 -30.5t-20 -19q-84 -6 -97 -11q-82 -305 -118 -426q-39 -137 -60 -182q-15 -39 -33 -43q-10 0 -18 3t-11 8 t-5 15.5t-2 15.5v17.5v14.5q20 193 -66 334q-35 53 -88 98q-61 51 -86 63q-27 16 -76 39q-37 18 -48 35t1 27t33.5 17t50.5 11q111 4 242 5q178 4 239 8l199 755l8 29q-113 -35 -213 -92q-201 -115 -332 -276q-59 -74 -129 -168q-45 -63 -112 -191q-43 -78 -97 -184 l-86 -187q-96 -211 -174 -350q-14 -12 -29.5 -12t-23.5 13.5t0 27.5zM547 475q283 -150 303 -446q39 127 127 454q-403 -6 -430 -8zM891 1450q27 55 90 65.5t109 -14.5q113 -39 141 43q4 16 17.5 18.5t23.5 -9t6 -25.5q-27 -80 -94 -90q-53 -2 -109 14q-104 35 -139 -27 q-12 -18 -33.5 -6.5t-11.5 31.5z" />
<glyph unicode="&#xc4;" d="M4 -90q55 94 174 346l90 195l99 190q72 129 118 197q51 74 136 172q80 98 161 164q203 156 418 215q49 14 56.5 -34t-7.5 -75l-194 -733q41 4 65 8q18 4 28.5 -9.5t6.5 -30.5t-20 -19q-84 -6 -97 -11q-82 -305 -118 -426q-39 -137 -60 -182q-15 -39 -33 -43q-10 0 -18 3 t-11 8t-5 15.5t-2 15.5v17.5v14.5q20 193 -66 334q-35 53 -88 98q-61 51 -86 63q-27 16 -76 39q-37 18 -48 35t1 27t33.5 17t50.5 11q111 4 242 5q178 4 239 8l199 755l8 29q-113 -35 -213 -92q-201 -115 -332 -276q-59 -74 -129 -168q-45 -63 -112 -191q-43 -78 -97 -184 l-86 -187q-96 -211 -174 -350q-14 -12 -29.5 -12t-23.5 13.5t0 27.5zM547 475q283 -150 303 -446q39 127 127 454q-403 -6 -430 -8zM983 1477q0 35 28.5 48t58.5 -0.5t30 -47.5q0 -51 -58.5 -51t-58.5 51zM1155 1477q0 35 28.5 48t58.5 -0.5t30 -47.5q0 -51 -58.5 -51 t-58.5 51z" />
<glyph unicode="&#xc5;" d="M4 -90q55 94 174 346l82 176q4 8 90 176q51 98 107 185q20 31 118 163q66 88 142 158q182 160 356 232q-31 24 -31 67q0 51 43 100q45 51 89 52q68 0 92 -66q27 -61 -9 -113l-8 -10q18 -31 0 -96l-194 -733l65 8q18 4 28.5 -9.5t6.5 -30.5t-20 -19q-84 -6 -97 -11 q-82 -305 -118 -426q-39 -137 -60 -182q-14 -39 -33 -43q-10 0 -18 3t-11 8t-5 15.5t-2 15.5v17.5v14.5q20 193 -66 334q-35 53 -88 98q-61 51 -86 63q-27 16 -76 39q-37 18 -48 35t1 27t33.5 17t50.5 11q111 4 242 5q178 4 239 8l199 755l8 29q-113 -35 -213 -92 q-201 -115 -332 -276q-59 -74 -129 -168q-45 -63 -112 -191q-43 -78 -97 -184l-86 -187q-96 -211 -174 -350q-14 -12 -29.5 -12t-23.5 13.5t0 27.5zM547 475q283 -150 303 -446q39 127 127 454q-403 -6 -430 -8zM1094 1413q2 -37 51 -35q49 6 67 35q20 29 8.5 64.5 t-46.5 35.5q-20 0 -52 -34q-29 -35 -28 -66z" />
<glyph unicode="&#xc6;" horiz-adv-x="2496" d="M4 -90q55 94 174 346l90 195l99 190q72 129 118 197q51 74 136 172q80 98 161 164q203 156 418 215q49 14 56.5 -34t-7.5 -75q-8 -25 -69 -258q152 168 407 258q270 98 647 23q193 -45 185 -125q-10 -86 -295 -99q-18 0 -25.5 15.5t-0.5 30t24 14.5q195 10 225 37l12 10 q-16 29 -139 59q-393 84 -676 -41q-266 -115 -374.5 -289t-10.5 -249q119 -94 453 10q29 8 43 14q143 51 213 58q45 6 53 -21q14 -29 -27 -80q-31 -35 -192 -190q-242 -229 -309 -320q-12 -16 -25 -35q-49 -72 -18 -114q49 -63 219 -21q121 37 239 88q139 63 211 105 q88 49 217 127q135 80 203 116q27 14 39 -10t-10 -41q-123 -76 -285 -168q-106 -61 -287 -149q-178 -88 -311 -125q-68 -19 -125 -19q-115 0 -157 62q-55 70 16 182q66 102 344 365q143 135 188 186q-43 -6 -176 -51q-455 -150 -592 24l-28 -112l65 8q18 4 28.5 -9.5 t6.5 -30.5t-20 -19q-84 -6 -97 -11q-82 -305 -118 -426q-39 -137 -60 -182q-14 -39 -33 -43q-10 0 -18 3t-11 8t-5 15.5t-2 15.5v17.5v14.5q20 193 -66 334q-35 53 -88 98q-61 51 -86 63q-27 16 -76 39q-37 18 -48 35t1 27t33.5 17t50.5 11q111 4 242 5q178 4 239 8l80 307 l119 448l8 29q-113 -35 -213 -92q-201 -115 -332 -276q-59 -74 -129 -168q-45 -63 -112 -191q-43 -78 -97 -184l-86 -187q-96 -211 -174 -350q-14 -12 -29.5 -12t-23.5 13.5t0 27.5zM547 475q283 -150 303 -446q39 127 127 454q-403 -6 -430 -8z" />
<glyph unicode="&#xc7;" horiz-adv-x="1681" d="M0 154q14 131 102 274q92 150 249 309.5t343.5 294.5t397.5 217q213 84 391 74q178 -8 184 -100q4 -57 -81 -106.5t-249 -84.5q-29 -6 -34 23q-4 29 22 35q92 18 176 51q109 49 109 78q-2 8 -13.5 16t-42 17.5t-75.5 11.5q-172 10 -373 -70q-203 -80 -383 -211 q-377 -276 -569 -586q-209 -346 61 -346q244 6 748 228q504 225 718 356q14 10 28.5 2t15.5 -23.5t-13 -27.5q-121 -80 -457 -240q-326 -156 -612 -254q0 -4 -1 -17.5t-1 -15.5q66 4 113 -47q51 -51 26 -112q-10 -37 -62 -48.5t-98.5 12t-41.5 68.5q0 14 12 21.5t24.5 1.5 t14.5 -23q0 -29 47 -32q49 -4 57 20q14 29 -22 64q-35 31 -72 22q-27 -6 -40 1t-11 36l2 12v19q-225 -74 -375 -80q-113 0 -167 43t-48 117z" />
<glyph unicode="&#xc8;" horiz-adv-x="1439" d="M37 647q-90 119 26 299q125 193 400 309q297 133 715 48q193 -45 184 -125q-10 -86 -295 -99q-18 0 -25.5 15.5t-1 30t24.5 14.5q195 10 225 37l13 10q-16 29 -140 59q-203 43 -369.5 32t-305 -71.5t-230.5 -134.5t-145 -156q-96 -152 -31 -231q29 -41 127 -59 q129 -25 389 65q143 51 213 58q45 6 53 -21q14 -29 -26 -80q-31 -35 -193 -190q-242 -229 -309 -320q-12 -16 -25 -35q-49 -72 -18 -114q49 -63 219 -21q121 37 240 88q139 63 211 105q88 49 217 127q135 80 202 116q27 14 39.5 -10t-10.5 -41q-123 -76 -285 -168 q-106 -61 -286 -149q-178 -88 -312 -125q-68 -19 -125 -19q-115 0 -157 62q-55 70 16 182q66 102 344 365q143 135 189 186q-43 -6 -177 -51q-219 -74 -369.5 -71t-211.5 83zM635 1512.5q16 17.5 35 5.5l135 -109q16 -16 0.5 -33.5t-33.5 -5.5l-135 109q-18 16 -2 33.5z" />
<glyph unicode="&#xc9;" horiz-adv-x="1439" d="M37 647q-90 119 26 299q125 193 400 309q297 133 715 48q193 -45 184 -125q-10 -86 -295 -99q-18 0 -25.5 15.5t-1 30t24.5 14.5q195 10 225 37l13 10q-16 29 -140 59q-203 43 -369.5 32t-305 -71.5t-230.5 -134.5t-145 -156q-96 -152 -31 -231q29 -41 127 -59 q129 -25 389 65q143 51 213 58q45 6 53 -21q14 -29 -26 -80q-31 -35 -193 -190q-242 -229 -309 -320q-12 -16 -25 -35q-49 -72 -18 -114q49 -63 219 -21q121 37 240 88q139 63 211 105q88 49 217 127q135 80 202 116q27 14 39.5 -10t-10.5 -41q-123 -76 -285 -168 q-106 -61 -286 -149q-178 -88 -312 -125q-68 -19 -125 -19q-115 0 -157 62q-55 70 16 182q66 102 344 365q143 135 189 186q-43 -6 -177 -51q-219 -74 -369.5 -71t-211.5 83zM630 1402q-3 13 7 25l135 109q10 10 22.5 5t15.5 -17.5t-5 -26.5l-135 -108q-10 -10 -23.5 -5 t-16.5 18z" />
<glyph unicode="&#xca;" horiz-adv-x="1439" d="M37 647q-90 119 26 299q125 193 400 309q297 133 715 48q193 -45 184 -125q-10 -86 -295 -99q-18 0 -25.5 15.5t-1 30t24.5 14.5q195 10 225 37l13 10q-16 29 -140 59q-203 43 -369.5 32t-305 -71.5t-230.5 -134.5t-145 -156q-96 -152 -31 -231q29 -41 127 -59 q129 -25 389 65q143 51 213 58q45 6 53 -21q14 -29 -26 -80q-31 -35 -193 -190q-242 -229 -309 -320q-12 -16 -25 -35q-49 -72 -18 -114q49 -63 219 -21q121 37 240 88q139 63 211 105q88 49 217 127q135 80 202 116q27 14 39.5 -10t-10.5 -41q-123 -76 -285 -168 q-106 -61 -286 -149q-178 -88 -312 -125q-68 -19 -125 -19q-115 0 -157 62q-55 70 16 182q66 102 344 365q143 135 189 186q-43 -6 -177 -51q-219 -74 -369.5 -71t-211.5 83zM585 1405q-3 12 5 27l127 102q22 29 45 0l127 -102q18 -16 1.5 -34t-34.5 -5l-117 94l-116 -94 q-10 -10 -22.5 -5t-15.5 17z" />
<glyph unicode="&#xcb;" horiz-adv-x="1439" d="M37 647q-90 119 26 299q125 193 400 309q297 133 715 48q193 -45 184 -125q-10 -86 -295 -99q-18 0 -25.5 15.5t-1 30t24.5 14.5q195 10 225 37l13 10q-16 29 -140 59q-203 43 -369.5 32t-305 -71.5t-230.5 -134.5t-145 -156q-96 -152 -31 -231q29 -41 127 -59 q129 -25 389 65q143 51 213 58q45 6 53 -21q14 -29 -26 -80q-31 -35 -193 -190q-242 -229 -309 -320q-12 -16 -25 -35q-49 -72 -18 -114q49 -63 219 -21q121 37 240 88q139 63 211 105q88 49 217 127q135 80 202 116q27 14 39.5 -10t-10.5 -41q-123 -76 -285 -168 q-106 -61 -286 -149q-178 -88 -312 -125q-68 -19 -125 -19q-115 0 -157 62q-55 70 16 182q66 102 344 365q143 135 189 186q-43 -6 -177 -51q-219 -74 -369.5 -71t-211.5 83zM614 1432q0 35 29 48t58.5 -0.5t29.5 -47.5q0 -51 -58.5 -51t-58.5 51zM786 1432q0 35 29 48 t58.5 -0.5t29.5 -47.5q0 -51 -58.5 -51t-58.5 51z" />
<glyph unicode="&#xcc;" horiz-adv-x="1400" d="M18 422q-37 45 2 121q43 82 159 188.5t272 204.5q152 96 366 164q209 66 397 53q129 -8 148 -127q23 -121 -74 -344q-96 -225 -237 -438q-145 -221 -277 -383q-135 -170 -192 -197q-25 -10 -41 -10q-29 0 -56 27q-53 74 4 294q59 225 140 320q23 23 43 4q23 -23 2 -43 q-74 -84 -127 -291q-49 -201 -15 -248q4 -8 25 0q66 31 256 283q195 260 354 565q164 313 138 451q-12 72 -95 78q-178 12 -374 -50q-193 -59 -351 -157q-152 -92 -263 -193.5t-148 -175.5q-23 -45 -11 -59q29 -29 166 16q31 8 37 -20q8 -25 -18 -37q-180 -55 -230 4z M746 1364.5q16 17.5 34 5.5l135 -108q16 -16 1 -33.5t-33 -5.5l-135 108q-18 16 -2 33.5z" />
<glyph unicode="&#xcd;" horiz-adv-x="1400" d="M18 422q-37 45 2 121q43 82 159 188.5t272 204.5q152 96 366 164q209 66 397 53q129 -8 148 -127q23 -121 -74 -344q-96 -225 -237 -438q-145 -221 -277 -383q-135 -170 -192 -197q-25 -10 -41 -10q-29 0 -56 27q-53 74 4 294q59 225 140 320q23 23 43 4q23 -23 2 -43 q-74 -84 -127 -291q-49 -201 -15 -248q4 -8 25 0q66 31 256 283q195 260 354 565q164 313 138 451q-12 72 -95 78q-178 12 -374 -50q-193 -59 -351 -157q-152 -92 -263 -193.5t-148 -175.5q-23 -45 -11 -59q29 -29 166 16q31 8 37 -20q8 -25 -18 -37q-180 -55 -230 4z M755 1197.5q-3 13.5 7 25.5l135 108q10 10 22.5 5t15.5 -17t-5 -27l-135 -108q-10 -10 -23.5 -5t-16.5 18.5z" />
<glyph unicode="&#xce;" horiz-adv-x="1400" d="M18 422q-37 45 2 121q43 82 159 188.5t272 204.5q152 96 366 164q209 66 397 53q129 -8 148 -127q23 -121 -74 -344q-96 -225 -237 -438q-145 -221 -277 -383q-135 -170 -192 -197q-25 -10 -41 -10q-29 0 -56 27q-53 74 4 294q59 225 140 320q23 23 43 4q23 -23 2 -43 q-74 -84 -127 -291q-49 -201 -15 -248q4 -8 25 0q66 31 256 283q195 260 354 565q164 313 138 451q-12 72 -95 78q-178 12 -374 -50q-193 -59 -351 -157q-152 -92 -263 -193.5t-148 -175.5q-23 -45 -11 -59q29 -29 166 16q31 8 37 -20q8 -25 -18 -37q-180 -55 -230 4z M755 1229q-3 12 5 26l127 103q22 29 45 0l127 -103q18 -16 1.5 -33.5t-34.5 -4.5l-117 94l-116 -94q-10 -10 -22.5 -5t-15.5 17z" />
<glyph unicode="&#xcf;" horiz-adv-x="1400" d="M18 422q-37 45 2 121q43 82 159 188.5t272 204.5q152 96 366 164q209 66 397 53q129 -8 148 -127q23 -121 -74 -344q-96 -225 -237 -438q-145 -221 -277 -383q-135 -170 -192 -197q-25 -10 -41 -10q-29 0 -56 27q-53 74 4 294q59 225 140 320q23 23 43 4q23 -23 2 -43 q-74 -84 -127 -291q-49 -201 -15 -248q4 -8 25 0q66 31 256 283q195 260 354 565q164 313 138 451q-12 72 -95 78q-178 12 -374 -50q-193 -59 -351 -157q-152 -92 -263 -193.5t-148 -175.5q-23 -45 -11 -59q29 -29 166 16q31 8 37 -20q8 -25 -18 -37q-180 -55 -230 4z M786 1262q0 35 29 48t58.5 -0.5t29.5 -47.5q0 -33 -29.5 -46.5t-58.5 0t-29 46.5zM958 1262q0 35 29 48t58.5 -0.5t29.5 -47.5q0 -33 -29.5 -46.5t-58.5 0t-29 46.5z" />
<glyph unicode="&#xd0;" horiz-adv-x="2029" d="M3 459q-15 49 44 143q53 88 164 195.5t267.5 218t336.5 193.5t375.5 121t384.5 -1q184 -39 298 -140.5t126 -238.5q10 -121 -51 -241q-39 -76 -181 -199q-45 -39 -127 -86q-63 -37 -135 -76q-59 -33 -149 -74l-148 -63l-149 -61l-156 -66q-18 -8 -127 -57 q-135 -66 -155 -115q-31 -25 -49.5 -6.5t3.5 47.5q78 145 283 604l-213 -14h-2q-27 4 -28 29.5t26 29.5l246 16q170 395 170 449q0 27 28 27q31 0 31 -27q0 -76 -164 -444l158 12q29 0 29 -27.5t-27 -32.5l-186 -14l-58 -125q-164 -358 -180 -391q80 47 348 158l138 57 l139 62q86 37 143 67q82 43 129 72q102 57 223 168q139 133 134 317q-10 117 -113 204t-266 120q-209 43 -454 -20.5t-444.5 -186.5t-352 -255t-216.5 -237q-70 -104 -12 -118q41 -6 141 22q25 8 35 -20q8 -27 -16 -37q-98 -27 -162 -17.5t-79 58.5z" />
<glyph unicode="&#xd1;" horiz-adv-x="1028" d="M8 225q20 147 111 559q63 287 63 328q0 27 29 27q31 0 31 -27q0 -29 -66 -340q-111 -500 -117 -629q4 4 21 33q381 596 594 856t291 213q14 -8 12 -37q-4 -39 -35 -161q-193 -760 -221 -1033q-20 -182 16 -217q33 -33 152 66q129 106 248 248q12 16 28.5 13t20.5 -16.5 t-4 -29.5q-18 -23 -38 -44.5t-53.5 -58t-64.5 -66.5t-69.5 -63.5t-74.5 -56t-71 -39t-65.5 -15.5t-53.5 19q-115 109 174 1235l19 72l33 135q-33 -10 -111 -94q-70 -72 -260 -334q-182 -254 -416 -625q-55 -86 -65 -90q-20 -12 -43 4q-33 20 -15 168zM393 1325 q27 55 90.5 65.5t108.5 -14.5q113 -39 141 43q4 16 17.5 18.5t23.5 -9t6 -25.5q-27 -80 -94 -90q-53 -2 -108 14q-104 35 -140 -27q-12 -18 -33.5 -6.5t-11.5 31.5z" />
<glyph unicode="&#xd2;" horiz-adv-x="1249" d="M4 754q-18 119 96 295q113 176 289 288q352 231 651 45q260 -160 144 -557q-66 -217 -213 -411q-150 -203 -350 -334q-199 -131 -392 -131q-147 4 -166 133q-18 127 82 362q100 236 233.5 424.5t196.5 208.5q25 8 35 -20q8 -27 -16 -37q-37 -10 -119 -123 q-86 -115 -166 -254q-90 -156 -143 -303q-59 -162 -45 -248q12 -84 98 -86q174 -6 369 121q197 131 336 322q145 195 202 393q104 356 -116 491q-106 68 -232 68q-113 2 -191.5 -26.5t-164.5 -86.5q-164 -106 -270 -268q-102 -162 -89 -258q6 -55 62 -72q18 -4 21.5 -19.5 t-9 -28.5t-28.5 -9q-88 27 -105 121zM635 1680.5q16 17.5 35 5.5l135 -109q16 -16 0.5 -33.5t-33.5 -5.5l-135 109q-18 16 -2 33.5z" />
<glyph unicode="&#xd3;" horiz-adv-x="1249" d="M4 754q-18 119 96 295q113 176 289 288q352 231 651 45q260 -160 144 -557q-66 -217 -213 -411q-150 -203 -350 -334q-199 -131 -392 -131q-147 4 -166 133q-18 127 82 362q100 236 233.5 424.5t196.5 208.5q25 8 35 -20q8 -27 -16 -37q-37 -10 -119 -123 q-86 -115 -166 -254q-90 -156 -143 -303q-59 -162 -45 -248q12 -84 98 -86q174 -6 369 121q197 131 336 322q145 195 202 393q104 356 -116 491q-106 68 -232 68q-113 2 -191.5 -26.5t-164.5 -86.5q-164 -106 -270 -268q-102 -162 -89 -258q6 -55 62 -72q18 -4 21.5 -19.5 t-9 -28.5t-28.5 -9q-88 27 -105 121zM652 1537.5q-3 13.5 7 25.5l136 108q10 10 22 5t15.5 -17t-5.5 -27l-135 -108q-10 -10 -23.5 -5t-16.5 18.5z" />
<glyph unicode="&#xd4;" horiz-adv-x="1249" d="M4 754q-18 119 96 295q113 176 289 288q352 231 651 45q260 -160 144 -557q-66 -217 -213 -411q-150 -203 -350 -334q-199 -131 -392 -131q-147 4 -166 133q-18 127 82 362q100 236 233.5 424.5t196.5 208.5q25 8 35 -20q8 -27 -16 -37q-37 -10 -119 -123 q-86 -115 -166 -254q-90 -156 -143 -303q-59 -162 -45 -248q12 -84 98 -86q174 -6 369 121q197 131 336 322q145 195 202 393q104 356 -116 491q-106 68 -232 68q-113 2 -191.5 -26.5t-164.5 -86.5q-164 -106 -270 -268q-102 -162 -89 -258q6 -55 62 -72q18 -4 21.5 -19.5 t-9 -28.5t-28.5 -9q-88 27 -105 121zM624 1523.5q-3 12.5 5 26.5l127 103q22 29 45 0l127 -103q18 -16 1.5 -33.5t-34.5 -5.5l-117 95l-116 -95q-10 -10 -22.5 -5t-15.5 17.5z" />
<glyph unicode="&#xd5;" horiz-adv-x="1249" d="M4 754q-18 119 96 295q113 176 289 288q352 231 651 45q260 -160 144 -557q-66 -217 -213 -411q-150 -203 -350 -334q-199 -131 -392 -131q-147 4 -166 133q-18 127 82 362q100 236 233.5 424.5t196.5 208.5q25 8 35 -20q8 -27 -16 -37q-37 -10 -119 -123 q-86 -115 -166 -254q-90 -156 -143 -303q-59 -162 -45 -248q12 -84 98 -86q174 -6 369 121q197 131 336 322q145 195 202 393q104 356 -116 491q-106 68 -232 68q-113 2 -191.5 -26.5t-164.5 -86.5q-164 -106 -270 -268q-102 -162 -89 -258q6 -55 62 -72q18 -4 21.5 -19.5 t-9 -28.5t-28.5 -9q-88 27 -105 121zM582 1530q27 55 90 65.5t108 -14.5q113 -39 142 43q4 16 17 18.5t23.5 -9t6.5 -25.5q-27 -80 -95 -90q-53 -2 -108 14q-104 35 -139 -27q-12 -18 -33.5 -6.5t-11.5 31.5z" />
<glyph unicode="&#xd6;" horiz-adv-x="1249" d="M4 754q-18 119 96 295q113 176 289 288q352 231 651 45q260 -160 144 -557q-66 -217 -213 -411q-150 -203 -350 -334q-199 -131 -392 -131q-147 4 -166 133q-18 127 82 362q100 236 233.5 424.5t196.5 208.5q25 8 35 -20q8 -27 -16 -37q-37 -10 -119 -123 q-86 -115 -166 -254q-90 -156 -143 -303q-59 -162 -45 -248q12 -84 98 -86q174 -6 369 121q197 131 336 322q145 195 202 393q104 356 -116 491q-106 68 -232 68q-113 2 -191.5 -26.5t-164.5 -86.5q-164 -106 -270 -268q-102 -162 -89 -258q6 -55 62 -72q18 -4 21.5 -19.5 t-9 -28.5t-28.5 -9q-88 27 -105 121zM641 1550q0 35 29.5 48.5t58.5 0t29 -48.5q0 -51 -58.5 -51t-58.5 51zM813 1550q0 35 29.5 48.5t58.5 0t29 -48.5q0 -51 -58.5 -51t-58.5 51z" />
<glyph unicode="&#xd8;" horiz-adv-x="1249" d="M4 754q-18 119 96 295q113 176 289 288q279 182 533 101l36 84q16 29 46 10q18 -16 10 -33l-37 -84q334 -160 207 -590q-88 -295 -338 -557q-248 -260 -514 -309l-47 -109q-12 -25 -39 -12q-25 8 -15 37l33 76q-78 -10 -134 24.5t-67 106.5q-18 127 82 362 q100 236 233.5 424.5t196.5 208.5q25 8 35 -20q8 -27 -16 -37q-37 -10 -119 -123q-86 -115 -166 -254q-90 -156 -143 -303q-59 -162 -45 -248q16 -109 170 -82l606 1374q-225 72 -475 -96q-164 -106 -270 -268q-102 -162 -89 -258q6 -55 62 -72q18 -4 21.5 -19.5t-9 -28.5 t-28.5 -9q-88 27 -105 121zM360 23q238 61 463 307q223 244 303 512q104 358 -174 520z" />
<glyph unicode="&#xd9;" horiz-adv-x="1169" d="M10 1116q-37 72 82 197q88 96 199 160q113 68 180 38q59 -27 57 -118q-2 -115 -155 -576q-176 -528 -135 -571h20q135 41 385 348q117 141 203 256q14 20 53 71.5t77 103.5t75 103q141 199 209 279q35 25 47 0t-4 -43q-25 -33 -101 -188q-74 -156 -160 -369 q-88 -225 -124 -404q-39 -190 0 -297q35 -66 112 -65q18 0 25.5 -14.5t0 -28.5t-25.5 -14q-154 0 -184 157q-31 143 47 412q82 274 205 541q-106 -145 -215 -291q-84 -111 -209 -264q-246 -301 -400 -349q-51 -16 -76.5 9.5t-23.5 91.5q4 121 135 520l8 27q150 434 152 559 q2 51 -20 59q-43 16 -138 -39q-92 -53 -176 -143q-88 -98 -74 -131q10 -18 76 -8q18 2 27.5 -12.5t3.5 -30t-25 -17.5q-104 -12 -133 41zM731.5 1452.5q16.5 17.5 34.5 5.5l135 -108q16 -16 0.5 -33.5t-33.5 -5.5l-135 108q-18 16 -1.5 33.5z" />
<glyph unicode="&#xda;" horiz-adv-x="1169" d="M10 1116q-37 72 82 197q88 96 199 160q113 68 180 38q59 -27 57 -118q-2 -115 -155 -576q-176 -528 -135 -571h20q135 41 385 348q117 141 203 256q14 20 53 71.5t77 103.5t75 103q141 199 209 279q35 25 47 0t-4 -43q-25 -33 -101 -188q-74 -156 -160 -369 q-88 -225 -124 -404q-39 -190 0 -297q35 -66 112 -65q18 0 25.5 -14.5t0 -28.5t-25.5 -14q-154 0 -184 157q-31 143 47 412q82 274 205 541q-106 -145 -215 -291q-84 -111 -209 -264q-246 -301 -400 -349q-51 -16 -76.5 9.5t-23.5 91.5q4 121 135 520l8 27q150 434 152 559 q2 51 -20 59q-43 16 -138 -39q-92 -53 -176 -143q-88 -98 -74 -131q10 -18 76 -8q18 2 27.5 -12.5t3.5 -30t-25 -17.5q-104 -12 -133 41zM759 1324.5q-3 13.5 7 25.5l135 108q10 10 22.5 5t15.5 -17t-5 -27l-135 -108q-10 -10 -23.5 -5t-16.5 18.5z" />
<glyph unicode="&#xdb;" horiz-adv-x="1169" d="M10 1116q-37 72 82 197q88 96 199 160q113 68 180 38q59 -27 57 -118q-2 -115 -155 -576q-176 -528 -135 -571h20q135 41 385 348q117 141 203 256q14 20 53 71.5t77 103.5t75 103q141 199 209 279q35 25 47 0t-4 -43q-25 -33 -101 -188q-74 -156 -160 -369 q-88 -225 -124 -404q-39 -190 0 -297q35 -66 112 -65q18 0 25.5 -14.5t0 -28.5t-25.5 -14q-154 0 -184 157q-31 143 47 412q82 274 205 541q-106 -145 -215 -291q-84 -111 -209 -264q-246 -301 -400 -349q-51 -16 -76.5 9.5t-23.5 91.5q4 121 135 520l8 27q150 434 152 559 q2 51 -20 59q-43 16 -138 -39q-92 -53 -176 -143q-88 -98 -74 -131q10 -18 76 -8q18 2 27.5 -12.5t3.5 -30t-25 -17.5q-104 -12 -133 41zM673 1333.5q-3 12.5 5 26.5l127 102q22 29 45 0l127 -102q18 -16 2 -33.5t-35 -5.5l-117 94l-116 -94q-10 -10 -22.5 -5t-15.5 17.5z " />
<glyph unicode="&#xdc;" horiz-adv-x="1169" d="M10 1116q-37 72 82 197q88 96 199 160q113 68 180 38q59 -27 57 -118q-2 -115 -155 -576q-176 -528 -135 -571h20q135 41 385 348q117 141 203 256q14 20 53 71.5t77 103.5t75 103q141 199 209 279q35 25 47 0t-4 -43q-25 -33 -101 -188q-74 -156 -160 -369 q-88 -225 -124 -404q-39 -190 0 -297q35 -66 112 -65q18 0 25.5 -14.5t0 -28.5t-25.5 -14q-154 0 -184 157q-31 143 47 412q82 274 205 541q-106 -145 -215 -291q-84 -111 -209 -264q-246 -301 -400 -349q-51 -16 -76.5 9.5t-23.5 91.5q4 121 135 520l8 27q150 434 152 559 q2 51 -20 59q-43 16 -138 -39q-92 -53 -176 -143q-88 -98 -74 -131q10 -18 76 -8q18 2 27.5 -12.5t3.5 -30t-25 -17.5q-104 -12 -133 41zM668 1327q0 35 28.5 48.5t58 0t29.5 -48.5q0 -33 -29.5 -46t-58 0t-28.5 46zM840 1327q0 35 28.5 48.5t58 0t29.5 -48.5 q0 -33 -29.5 -46t-58 0t-28.5 46z" />
<glyph unicode="&#xdd;" horiz-adv-x="1044" d="M25 436q-57 92 22.5 339t290.5 677q6 16 22.5 17t27.5 -12t3 -30l-53 -112l-59 -125q-49 -104 -66 -148l-57 -139q-43 -104 -86 -262q-27 -121 4 -174q16 -23 51 -23q80 0 287 199q215 203 407 434q203 240 271 361q18 47 49 35q29 -10 10 -48l-4 -8q-39 -90 -283 -989 q29 14 80 45q16 10 29.5 1t13.5 -24.5t-12 -27.5q-78 -45 -133 -72q-106 -377 -181 -556t-139 -197q-32 -13 -61 18q-45 45 -61.5 151.5t16.5 233.5q33 129 125 221q66 68 252 168q66 238 106 399q76 283 127 457q-225 -299 -500 -577q-279 -283 -399 -283q-68 0 -100 51z M454.5 -220q10.5 -87 47.5 -124q73 0 266 653q-131 -72 -188 -129q-78 -82 -109 -194q-27 -119 -16.5 -206zM572.5 1324.5q-2.5 13.5 7.5 25.5l135 108q10 10 22.5 5t15.5 -17t-5 -27l-136 -108q-10 -10 -23.5 -5t-16 18.5z" />
<glyph unicode="&#xe0;" horiz-adv-x="659" d="M-41 422q-31 68 24.5 194.5t135.5 169.5q59 31 100 0.5t35 -94.5q-2 -16 -17.5 -22t-28.5 2t-11 26q4 31 -9.5 40.5t-40.5 -5.5q-59 -33 -108 -137q-47 -106 -27 -150q8 -14 47 0q43 18 107 127q35 57 65 60q18 2 25 -25q2 -2 2 -4q33 -123 86 -139q96 -29 315 184 q14 14 30 8t19 -21t-8 -28q-244 -238 -370 -200q-74 23 -115 131q-70 -123 -133 -148q-90 -30 -123 31zM135.5 1026.5q16.5 17.5 34.5 5.5l135 -108q16 -16 0.5 -33.5t-33.5 -5.5l-135 108q-18 16 -1.5 33.5z" />
<glyph unicode="&#xe1;" horiz-adv-x="659" d="M-41 422q-31 68 24.5 194.5t135.5 169.5q59 31 100 0.5t35 -94.5q-2 -16 -17.5 -22t-28.5 2t-11 26q4 31 -9.5 40.5t-40.5 -5.5q-59 -33 -108 -137q-47 -106 -27 -150q8 -14 47 0q43 18 107 127q35 57 65 60q18 2 25 -25q2 -2 2 -4q33 -123 86 -139q96 -29 315 184 q14 14 30 8t19 -21t-8 -28q-244 -238 -370 -200q-74 23 -115 131q-70 -123 -133 -148q-90 -30 -123 31zM89 898.5q-3 13.5 7 25.5l135 108q10 10 22.5 5t15.5 -17t-5 -27l-135 -108q-10 -10 -23.5 -5t-16.5 18.5z" />
<glyph unicode="&#xe2;" horiz-adv-x="659" d="M-41 422q-31 68 24.5 194.5t135.5 169.5q59 31 100 0.5t35 -94.5q-2 -16 -17.5 -22t-28.5 2t-11 26q4 31 -9.5 40.5t-40.5 -5.5q-59 -33 -108 -137q-47 -106 -27 -150q8 -14 47 0q43 18 107 127q35 57 65 60q18 2 25 -25q2 -2 2 -4q33 -123 86 -139q96 -29 315 184 q14 14 30 8t19 -21t-8 -28q-244 -238 -370 -200q-74 23 -115 131q-70 -123 -133 -148q-90 -30 -123 31zM21.5 907.5q-3.5 12.5 5.5 26.5l127 102q22 29 45 0l127 -102q18 -16 1.5 -33.5t-34.5 -5.5l-117 94l-117 -94q-10 -10 -22 -5t-15.5 17.5z" />
<glyph unicode="&#xe3;" horiz-adv-x="659" d="M-41 422q-31 68 24.5 194.5t135.5 169.5q59 31 100 0.5t35 -94.5q-2 -16 -17.5 -22t-28.5 2t-11 26q4 31 -9.5 40.5t-40.5 -5.5q-59 -33 -108 -137q-47 -106 -27 -150q8 -14 47 0q43 18 107 127q35 57 65 60q18 2 25 -25q2 -2 2 -4q33 -123 86 -139q96 -29 315 184 q14 14 30 8t19 -21t-8 -28q-244 -238 -370 -200q-74 23 -115 131q-70 -123 -133 -148q-90 -30 -123 31zM-23 911q27 55 90.5 65.5t108.5 -13.5q113 -39 141 43q4 16 17.5 18t24 -9t6.5 -26q-27 -80 -95 -90q-53 -2 -108 14q-104 35 -139 -26q-12 -18 -34 -7t-12 31z" />
<glyph unicode="&#xe4;" horiz-adv-x="659" d="M-41 422q-31 68 24.5 194.5t135.5 169.5q59 31 100 0.5t35 -94.5q-2 -16 -17.5 -22t-28.5 2t-11 26q4 31 -9.5 40.5t-40.5 -5.5q-59 -33 -108 -137q-47 -106 -27 -150q8 -14 47 0q43 18 107 127q35 57 65 60q18 2 25 -25q2 -2 2 -4q33 -123 86 -139q96 -29 315 184 q14 14 30 8t19 -21t-8 -28q-244 -238 -370 -200q-74 23 -115 131q-70 -123 -133 -148q-90 -30 -123 31zM29 901q0 35 28.5 48.5t58 0t29.5 -48.5q0 -33 -28.5 -46t-58 0t-29.5 46zM201 901q0 35 28.5 48.5t58 0t29.5 -48.5q0 -33 -28.5 -46t-58 0t-29.5 46z" />
<glyph unicode="&#xe5;" horiz-adv-x="659" d="M-41 422q-31 68 24.5 194.5t135.5 169.5q59 31 100 0.5t35 -94.5q-2 -16 -17.5 -22t-28.5 2t-11 26q4 31 -9.5 40.5t-40.5 -5.5q-59 -33 -108 -137q-47 -106 -27 -150q8 -14 47 0q43 18 107 127q35 57 65 60q18 2 25 -25q2 -2 2 -4q33 -123 86 -139q96 -29 315 184 q14 14 30 8t19 -21t-8 -28q-244 -238 -370 -200q-74 23 -115 131q-70 -123 -133 -148q-90 -30 -123 31zM51 942q0 51 43 100q45 51 88 52q68 0 92 -66q27 -61 -8 -113q-23 -41 -76 -55t-97 7.5t-42 74.5zM102 942q2 -37 52 -35q49 6 67 35q20 29 8 64.5t-47 35.5 q-20 0 -51 -34q-29 -35 -29 -66z" />
<glyph unicode="&#xe6;" horiz-adv-x="792" d="M-41 422q-31 68 24.5 194.5t135.5 169.5q59 31 100 0.5t35 -94.5q-2 -16 -17.5 -22t-28.5 2t-11 26q4 31 -9.5 40.5t-40.5 -5.5q-59 -33 -108 -137q-47 -106 -27 -150q8 -14 47 0q43 18 107 127q14 29 40.5 47.5t45.5 -2.5q47 72 102 101q66 35 99 -23q27 -37 4 -116 q-23 -76 -74 -103q-63 -33 -121 -37q8 -61 98 -51q163 14 433 260q8 8 18 9t16.5 -4t11.5 -12t3 -17.5t-8 -16.5q-276 -254 -465 -276q-55 -8 -101.5 13.5t-60.5 66.5q-18 53 6 125q-72 -121 -131 -146q-90 -31 -123 31zM264 500q41 2 90 28q31 16 47 68q16 49 0 72 q-8 8 -20 0q-37 -20 -71 -68.5t-46 -99.5z" />
<glyph unicode="&#xe7;" horiz-adv-x="520" d="M-68 420q-23 78 27 166q45 90 131 135q49 25 78 -5t10 -79q-8 -27 -39 -16q-25 12 -16 38q4 8 4 15q-63 -27 -110.5 -100.5t-26.5 -137.5q14 -59 98 -49q178 18 432 262q23 23 41.5 0.5t-0.5 -41.5q-190 -188 -373 -254q0 -41 -2 -49q66 4 113 -47q52 -52 27 -113 q-10 -37 -62.5 -48t-98.5 12.5t-42 68.5q0 14 12 21.5t24.5 1.5t14.5 -23q0 -31 47 -35t58 23q14 31 -23 61q-35 35 -72 25q-27 -6 -40 1t-11 36l4 51q-27 -6 -41 -8q-57 -6 -103 17.5t-61 70.5z" />
<glyph unicode="&#xe8;" horiz-adv-x="518" d="M-68 412q-23 78 26.5 172t121.5 135q66 35 98 -23q27 -37 4 -116q-23 -76 -73 -103q-63 -33 -121 -37q8 -61 98 -51q162 14 432 260q23 23 41.5 0.5t-0.5 -41.5q-276 -254 -465 -276q-55 -8 -101 13.5t-61 66.5zM-10 500q41 2 90 28q31 16 47 68q16 49 0 72q-9 8 -21 0 q-37 -20 -70.5 -68.5t-45.5 -99.5zM45 936.5q16 17.5 35 5.5l135 -108q16 -16 0.5 -33.5t-33.5 -5.5l-135 108q-18 16 -2 33.5z" />
<glyph unicode="&#xe9;" horiz-adv-x="518" d="M-68 412q-23 78 26.5 172t121.5 135q66 35 98 -23q27 -37 4 -116q-23 -76 -73 -103q-63 -33 -121 -37q8 -61 98 -51q162 14 432 260q23 23 41.5 0.5t-0.5 -41.5q-276 -254 -465 -276q-55 -8 -101 13.5t-61 66.5zM-10 500q41 2 90 28q31 16 47 68q16 49 0 72q-9 8 -21 0 q-37 -20 -70.5 -68.5t-45.5 -99.5zM9 834.5q-3 13.5 7 25.5l136 109q10 10 22 5t15.5 -17.5t-5.5 -26.5l-135 -109q-10 -10 -23.5 -5t-16.5 18.5z" />
<glyph unicode="&#xea;" horiz-adv-x="518" d="M-68 412q-23 78 26.5 172t121.5 135q66 35 98 -23q27 -37 4 -116q-23 -76 -73 -103q-63 -33 -121 -37q8 -61 98 -51q162 14 432 260q23 23 41.5 0.5t-0.5 -41.5q-276 -254 -465 -276q-55 -8 -101 13.5t-61 66.5zM-54 805q-3 12 5 26l127 103q22 29 45 0l127 -103 q18 -16 2 -33.5t-35 -4.5l-117 94l-116 -94q-10 -10 -22.5 -5t-15.5 17zM-10 500q41 2 90 28q31 16 47 68q16 49 0 72q-9 8 -21 0q-37 -20 -70.5 -68.5t-45.5 -99.5z" />
<glyph unicode="&#xeb;" horiz-adv-x="518" d="M-68 412q-23 78 26.5 172t121.5 135q66 35 98 -23q27 -37 4 -116q-23 -76 -73 -103q-63 -33 -121 -37q8 -61 98 -51q162 14 432 260q23 23 41.5 0.5t-0.5 -41.5q-276 -254 -465 -276q-55 -8 -101 13.5t-61 66.5zM-51 858q0 35 28.5 48.5t58.5 0t30 -48.5q0 -51 -58.5 -51 t-58.5 51zM-10 500q41 2 90 28q31 16 47 68q16 49 0 72q-9 8 -21 0q-37 -20 -70.5 -68.5t-45.5 -99.5zM121 858q0 35 28.5 48.5t58.5 0t30 -48.5q0 -51 -58.5 -51t-58.5 51z" />
<glyph unicode="&#xec;" horiz-adv-x="536" d="M-36.5 920.5q16.5 17.5 34.5 5.5l135 -109q16 -16 0.5 -33.5t-33.5 -5.5l-135 109q-18 16 -1.5 33.5zM-4 606q-18 23 2 41q41 41 72 27q39 -18 12 -154q-29 -176 -4 -196q16 -8 49 6q119 53 410 319q23 20 42 1t-1 -42q-115 -115 -250 -217q-131 -96 -176 -115 q-70 -31 -111 0q-27 18 -33 66q-8 63 15 188q12 63 12 72q-20 -14 -39 4z" />
<glyph unicode="&#xed;" horiz-adv-x="536" d="M-52 748.5q-3 13.5 7 25.5l135 109q10 10 22.5 5t15.5 -17.5t-5 -26.5l-135 -109q-10 -10 -23.5 -5t-16.5 18.5zM-4 606q-18 23 2 41q41 41 72 27q39 -18 12 -154q-29 -176 -4 -196q16 -8 49 6q119 53 410 319q23 20 42 1t-1 -42q-115 -115 -250 -217q-131 -96 -176 -115 q-70 -31 -111 0q-27 18 -33 66q-8 63 15 188q12 63 12 72q-20 -14 -39 4z" />
<glyph unicode="&#xee;" horiz-adv-x="536" d="M-79 733q-3 12 5 27l127 102q22 29 45 0l127 -102q18 -16 2 -33.5t-34 -5.5l-117 94l-117 -94q-10 -10 -22.5 -5t-15.5 17zM-2 606q-18 23 2 41q41 41 72 27q39 -18 12 -154q-29 -176 -4 -196q14 -8 49 6q119 53 410 319q23 20 42 1t-1 -42q-115 -115 -250 -217 q-131 -96 -176 -115q-72 -31 -111 0q-27 18 -33 66q-8 63 15 188q12 63 12 72q-20 -14 -39 4z" />
<glyph unicode="&#xef;" horiz-adv-x="536" d="M-70 788q0 35 29 48.5t58.5 0t29.5 -48.5q0 -51 -58.5 -51t-58.5 51zM-4 606q-18 23 2 41q41 41 72 27q39 -18 12 -154q-29 -176 -4 -196q16 -8 49 6q119 53 410 319q23 20 42 1t-1 -42q-115 -115 -250 -217q-131 -96 -176 -115q-70 -31 -111 0q-27 18 -33 66 q-8 63 15 188q12 63 12 72q-20 -14 -39 4zM102 788q0 35 29 48.5t58.5 0t29.5 -48.5q0 -51 -58.5 -51t-58.5 51z" />
<glyph unicode="&#xf1;" horiz-adv-x="917" d="M-14 399q4 43 16 80q35 106 25 123q-29 -10 -33 21q-6 25 24.5 37t48 -4.5t15.5 -53.5q0 -63 -23 -141q-8 -18 -10 -35q12 10 45 35.5t45 36.5l84 67q195 156 266 121q10 -6 17.5 -13t12.5 -17.5t7 -19.5t3 -24.5t1 -23.5v-26.5v-27t-2 -25.5t-2 -30.5t2 -28t10.5 -21.5 t22.5 -7q121 14 359 227q8 8 18 9t16.5 -4t11.5 -12t3 -17.5t-8 -16.5q-88 -84 -205 -162q-111 -72 -189 -81q-66 -6 -86 51t-10 121q6 90 -8 98q-41 16 -205 -117q-201 -160 -211 -166q-68 -37 -61 47zM96 791q27 55 90.5 65t108.5 -14q113 -39 141 43q4 16 17.5 18 t23.5 -9t6 -26q-27 -80 -94 -90q-53 -2 -108 15q-104 35 -140 -27q-12 -18 -33.5 -6.5t-11.5 31.5z" />
<glyph unicode="&#xf2;" horiz-adv-x="618" d="M-68 504q16 98 68 143q61 57 139 10q16 -10 14.5 -27.5t-15 -23.5t-29.5 2q-37 23 -70 -4q-37 -35 -49 -110q-12 -76 10 -121q14 -31 47 -25q88 20 80 211q0 49 78 19q221 -90 416 71q8 8 18 9t16.5 -4t11.5 -12t3 -17.5t-8 -16.5q-220 -184 -476 -88q0 -199 -127 -229 q-33 -8 -64.5 7t-47.5 46q-33 63 -15 160zM29 885.5q16 17.5 34 5.5l136 -109q16 -16 0.5 -33.5t-33.5 -5.5l-135 109q-18 16 -2 33.5z" />
<glyph unicode="&#xf3;" horiz-adv-x="618" d="M-68 504q16 98 68 143q61 57 139 10q16 -10 14.5 -27.5t-15 -23.5t-29.5 2q-37 23 -70 -4q-37 -35 -49 -110q-12 -76 10 -121q14 -31 47 -25q88 20 80 211q0 49 78 19q221 -90 416 71q8 8 18 9t16.5 -4t11.5 -12t3 -17.5t-8 -16.5q-220 -184 -476 -88q0 -199 -127 -229 q-33 -8 -64.5 7t-47.5 46q-33 63 -15 160zM-52 738.5q-3 13.5 7 25.5l135 108q10 10 22.5 5t15.5 -17t-5 -26l-135 -109q-10 -10 -23.5 -5t-16.5 18.5z" />
<glyph unicode="&#xf4;" horiz-adv-x="618" d="M-73 749.5q-3 12.5 5 26.5l127 103q22 29 45 0l127 -103q18 -16 2 -33.5t-34 -5.5l-117 94l-117 -94q-10 -10 -22.5 -5t-15.5 17.5zM-68 504q16 98 68 143q61 57 139 10q16 -10 14.5 -27.5t-15 -23.5t-29.5 2q-37 23 -70 -4q-37 -35 -49 -110q-12 -76 10 -121 q14 -31 47 -25q88 20 80 211q0 49 78 19q221 -90 416 71q8 8 18 9t16.5 -4t11.5 -12t3 -17.5t-8 -16.5q-220 -184 -476 -88q0 -199 -127 -229q-33 -8 -64.5 7t-47.5 46q-33 63 -15 160z" />
<glyph unicode="&#xf5;" horiz-adv-x="618" d="M-96 756q27 55 90 65t108 -14q113 -39 142 43q4 16 17 18t23.5 -9t6.5 -25q-27 -80 -94 -91q-53 -2 -109 15q-104 35 -139 -27q-12 -18 -33.5 -6.5t-11.5 31.5zM-70 504q16 98 68 143q61 57 139 10q16 -10 14.5 -27.5t-15 -23.5t-30.5 2q-37 23 -69 -4q-37 -35 -49 -110 q-12 -76 10 -121q14 -31 47 -25q88 20 80 211q0 49 78 19q221 -90 415 71q14 14 30 8t19 -21t-8 -28q-219 -184 -475 -88q0 -199 -127 -229q-33 -8 -64.5 7t-47.5 46q-33 63 -15 160z" />
<glyph unicode="&#xf6;" horiz-adv-x="618" d="M-74 805q0 35 29 48t58.5 0t29.5 -48q0 -51 -58.5 -51t-58.5 51zM-70 504q16 98 68 143q61 57 139 10q16 -10 14.5 -27.5t-15 -23.5t-30.5 2q-37 23 -69 -4q-37 -35 -49 -110q-12 -76 10 -121q14 -31 47 -25q88 20 80 211q0 49 78 19q221 -90 415 71q14 14 30 8t19 -21 t-8 -28q-219 -184 -475 -88q0 -199 -127 -229q-33 -8 -64.5 7t-47.5 46q-33 63 -15 160zM98 805q0 35 29 48t58.5 0t29.5 -48q0 -51 -58.5 -51t-58.5 51z" />
<glyph unicode="&#xf8;" horiz-adv-x="618" d="M-82 252l33 82q-37 70 -21 168q16 96 68 145q43 37 86 31l39 96q16 29 45 10q23 -12 10 -32l-39 -97q18 -14 9 -34.5t-29 -18.5l-101 -254q12 -2 27 0q88 20 80 211q0 49 78 19q221 -90 415 71q14 14 30 8t19 -21t-8 -28q-219 -184 -475 -88q0 -199 -127 -229 q-33 -6 -59 4l-27 -68q-12 -25 -37 -14q-25 12 -16 39zM-14 420l75 198q-12 -4 -24 -14q-27 -27 -42 -81t-9 -103z" />
<glyph unicode="&#xf9;" horiz-adv-x="772" d="M-8 623q-6 25 22 34q31 4 43.5 -25.5t8.5 -94.5v-9q-6 -123 10 -133q51 -27 125 97q72 121 88 186q20 66 53 45q29 -23 29 -74v-26v-9q0 -47 1 -71.5t6 -60.5t18.5 -51t33.5 -13q109 16 342 231q14 14 29.5 8t18.5 -21t-7 -28q-256 -232 -377 -250q-80 -12 -106 76 q-14 59 -19 137q-90 -190 -184 -229q-16 -8 -39 -8q-96 0 -82 198q2 14 2 70q-12 4 -16 21zM66 928.5q16 17.5 34 5.5l136 -109q16 -16 0.5 -33.5t-33.5 -5.5l-135 109q-18 16 -2 33.5z" />
<glyph unicode="&#xfa;" horiz-adv-x="772" d="M-8 623q-6 25 22 34q31 4 43.5 -25.5t8.5 -94.5v-9q-6 -123 10 -133q51 -27 125 97q72 121 88 186q20 66 53 45q29 -23 29 -74v-26v-9q0 -47 1 -71.5t6 -60.5t18.5 -51t33.5 -13q109 16 342 231q14 14 29.5 8t18.5 -21t-7 -28q-256 -232 -377 -250q-80 -12 -106 76 q-14 59 -19 137q-90 -190 -184 -229q-16 -8 -39 -8q-96 0 -82 198q2 14 2 70q-12 4 -16 21zM99 777.5q-3 13.5 7 25.5l136 108q10 10 22 5t15.5 -17t-5.5 -27l-135 -108q-10 -10 -23.5 -5t-16.5 18.5z" />
<glyph unicode="&#xfb;" horiz-adv-x="772" d="M-8 623q-6 25 22 34q31 4 43.5 -25.5t8.5 -94.5v-9q-6 -123 10 -133q51 -27 125 97q72 121 88 186q20 66 53 45q29 -23 29 -74v-26v-9q0 -47 1 -71.5t6 -60.5t18.5 -51t33.5 -13q109 16 342 231q14 14 29.5 8t18.5 -21t-7 -28q-256 -232 -377 -250q-80 -12 -106 76 q-14 59 -19 137q-90 -190 -184 -229q-16 -8 -39 -8q-96 0 -82 198q2 14 2 70q-12 4 -16 21zM30 796.5q-3 12.5 5 26.5l127 103q22 29 45 0l127 -103q18 -16 1.5 -33.5t-34.5 -5.5l-117 95l-116 -95q-10 -10 -22.5 -5t-15.5 17.5z" />
<glyph unicode="&#xfc;" horiz-adv-x="772" d="M-8 623q-6 25 22 34q31 4 43.5 -25.5t8.5 -94.5v-9q-6 -123 10 -133q51 -27 125 97q72 121 88 186q20 66 53 45q29 -23 29 -74v-26v-9q0 -47 1 -71.5t6 -60.5t18.5 -51t33.5 -13q109 16 342 231q14 14 29.5 8t18.5 -21t-7 -28q-256 -232 -377 -250q-80 -12 -106 76 q-14 59 -19 137q-90 -190 -184 -229q-16 -8 -39 -8q-96 0 -82 198q2 14 2 70q-12 4 -16 21zM55 815q0 35 29 48.5t58.5 0t29.5 -48.5q0 -33 -28.5 -46t-58.5 0t-30 46zM227 815q0 35 30 48.5t58.5 0t28.5 -48.5q0 -33 -28.5 -46t-58.5 0t-30 46z" />
<glyph unicode="&#xfd;" horiz-adv-x="765" d="M-76 -459q-25 104 6 231.5t119 247.5q55 74 113 130q66 61 174 141q4 147 4 153q-82 -211 -203 -211q-143 0 -108 287q4 70 4 80q-20 -8 -35 8q-20 25 4 43q33 27 61 15q39 -20 23 -150q-10 -70 -4 -141q8 -76 45 -82q88 -12 145 143q37 96 74 230q6 20 22.5 25t29 -5 t8.5 -29q-4 -45 -9 -170q0 -125 -2 -151q146 112 371 313q14 14 29.5 8t18.5 -21t-7 -28q-178 -176 -414 -348q-31 -621 -155 -801q-90 -121 -185 -88q-96 35 -129 170zM-18 -446q25 -104 84 -125t122 63q111 170 144 723q-119 -70 -230 -223q-82 -111 -111.5 -226.5 t-8.5 -211.5zM149 769.5q-3 13.5 7 25.5l135 108q10 10 22.5 5t15.5 -17t-5 -27l-136 -108q-10 -10 -23 -5t-16 18.5z" />
<glyph unicode="&#xff;" horiz-adv-x="765" d="M-76 -459q-25 104 6 231.5t119 247.5q55 74 113 130q66 61 174 141q4 147 4 153q-82 -211 -203 -211q-143 0 -108 287q4 70 4 80q-20 -8 -35 8q-20 25 4 43q33 27 61 15q39 -20 23 -150q-10 -70 -4 -141q8 -76 45 -82q88 -12 145 143q37 96 74 230q6 20 22.5 25t29 -5 t8.5 -29q-4 -45 -9 -170q0 -125 -2 -151q146 112 371 313q14 14 29.5 8t18.5 -21t-7 -28q-178 -176 -414 -348q-31 -621 -155 -801q-90 -121 -185 -88q-96 35 -129 170zM-18 -446q25 -104 84 -125t122 63q111 170 144 723q-119 -70 -230 -223q-82 -111 -111.5 -226.5 t-8.5 -211.5zM84 821q0 35 28.5 48.5t58.5 0t30 -48.5q0 -51 -58.5 -51t-58.5 51zM256 821q0 35 29.5 48.5t58.5 0t29 -48.5q0 -51 -58.5 -51t-58.5 51z" />
<glyph unicode="&#x152;" horiz-adv-x="2551" d="M4 754q-18 119 96 295q113 176 289 288q352 231 651 45q193 -115 177 -381q68 82 167 151t240 123t305 61t361 -33q193 -45 184 -125q-8 -86 -295 -99q-18 0 -25.5 15.5t-1 30t24.5 14.5q195 10 225 37l13 10q-16 29 -140 59q-203 43 -369.5 32t-305 -71.5t-230.5 -134.5 t-145 -156q-98 -152 -31 -231q29 -41 127 -59q129 -25 389 65q143 51 213 58q45 6 53 -21q14 -29 -26 -80q-31 -35 -193 -190q-242 -229 -309 -320q-12 -16 -25 -35q-49 -72 -18 -114q49 -63 219 -21q121 37 240 88q139 63 211 105q88 49 217 127q135 80 202 116 q27 14 39.5 -10t-10.5 -41q-123 -76 -285 -168q-106 -61 -286 -149q-178 -88 -312 -125q-67 -19 -124 -19q-115 0 -158 62q-55 70 16 182q66 102 344 365q143 135 189 186q-43 -6 -176 -51q-219 -74 -370 -71t-212 83q-18 27 -21 33q-133 -295 -391 -514 q-254 -217 -508 -217q-147 4 -166 133q-18 127 82 362q100 236 233.5 424.5t196.5 208.5q25 8 35 -20q8 -27 -16 -37q-37 -10 -119 -123q-86 -115 -166 -254q-90 -156 -143 -303q-59 -162 -45 -248q12 -84 98 -86q182 -6 375 125q197 135 336 328q141 195 200 399 q92 342 -120 475q-106 68 -232 68q-113 2 -191.5 -26.5t-164.5 -86.5q-164 -106 -270 -268q-102 -162 -89 -258q6 -55 62 -72q18 -4 21.5 -19.5t-9 -28.5t-28.5 -9q-88 27 -105 121z" />
<glyph unicode="&#x153;" horiz-adv-x="714" d="M-68 504q16 98 68 143q61 57 139 10q16 -10 14.5 -27.5t-15 -23.5t-29.5 2q-37 23 -70 -4q-37 -35 -49 -110q-12 -76 10 -121q14 -31 47 -25q66 16 78 119q0 12 1 48t1 44q0 31 33 29q45 92 119 131q66 35 98 -23q27 -37 4 -116q-23 -76 -74 -103q-63 -33 -121 -37 q8 -61 99 -51q162 14 432 260q8 8 18 9t16.5 -4t11.5 -12t3 -17.5t-8 -16.5q-276 -254 -465 -276q-88 -14 -137 35q-33 -61 -97 -76q-33 -8 -64.5 7t-47.5 46q-33 63 -15 160zM188 500q41 2 91 28q31 16 47 68q16 49 0 72q-9 8 -21 0q-37 -20 -70.5 -68.5t-46.5 -99.5z" />
<glyph unicode="&#x178;" horiz-adv-x="1044" d="M25 436q-57 92 22.5 339t290.5 677q6 16 22.5 17t27.5 -12t3 -30l-53 -112l-59 -125q-49 -104 -66 -148l-57 -139q-43 -104 -86 -262q-27 -121 4 -174q16 -23 51 -23q80 0 287 199q215 203 407 434q203 240 271 361q18 47 49 35q29 -10 10 -48l-4 -8q-39 -90 -283 -989 q29 14 80 45q16 10 29.5 1t13.5 -24.5t-12 -27.5q-78 -45 -133 -72q-106 -377 -181 -556t-139 -197q-32 -13 -61 18q-45 45 -61.5 151.5t16.5 233.5q33 129 125 221q66 68 252 168q66 238 106 399q76 283 127 457q-225 -299 -500 -577q-279 -283 -399 -283q-68 0 -100 51z M454.5 -220q10.5 -87 47.5 -124q73 0 266 653q-131 -72 -188 -129q-78 -82 -109 -194q-27 -119 -16.5 -206zM582 1466q0 35 28.5 48.5t58 0t29.5 -48.5q0 -33 -29.5 -46t-58 0t-28.5 46zM754 1466q0 35 28.5 48.5t58 0t29.5 -48.5q0 -33 -29.5 -46t-58 0t-28.5 46z" />
<glyph unicode="&#x2c6;" horiz-adv-x="358" d="M23.5 907.5q-3.5 12.5 5.5 26.5l127 102q22 29 45 0l127 -102q18 -16 1.5 -33.5t-34.5 -5.5l-117 94l-117 -94q-10 -10 -22 -5t-15.5 17.5z" />
<glyph unicode="&#x2dc;" horiz-adv-x="434" d="M25 965q27 55 90 65t108 -14q113 -39 142 43q4 16 17 18t23.5 -9t6.5 -26q-27 -80 -95 -90q-53 -2 -108 15q-104 35 -139 -27q-12 -18 -33.5 -6.5t-11.5 31.5z" />
<glyph unicode="&#x2000;" horiz-adv-x="956" />
<glyph unicode="&#x2001;" horiz-adv-x="1913" />
<glyph unicode="&#x2002;" horiz-adv-x="956" />
<glyph unicode="&#x2003;" horiz-adv-x="1913" />
<glyph unicode="&#x2004;" horiz-adv-x="637" />
<glyph unicode="&#x2005;" horiz-adv-x="478" />
<glyph unicode="&#x2006;" horiz-adv-x="318" />
<glyph unicode="&#x2007;" horiz-adv-x="318" />
<glyph unicode="&#x2008;" horiz-adv-x="239" />
<glyph unicode="&#x2009;" horiz-adv-x="382" />
<glyph unicode="&#x200a;" horiz-adv-x="106" />
<glyph unicode="&#x2010;" horiz-adv-x="872" d="M21 658.5q-1 25.5 26 29.5l776 33q29 0 29 -27.5t-27 -31.5l-774 -33h-2q-27 4 -28 29.5z" />
<glyph unicode="&#x2011;" horiz-adv-x="872" d="M21 658.5q-1 25.5 26 29.5l776 33q29 0 29 -27.5t-27 -31.5l-774 -33h-2q-27 4 -28 29.5z" />
<glyph unicode="&#x2012;" horiz-adv-x="872" d="M21 658.5q-1 25.5 26 29.5l776 33q29 0 29 -27.5t-27 -31.5l-774 -33h-2q-27 4 -28 29.5z" />
<glyph unicode="&#x2013;" horiz-adv-x="1064" d="M20 658.5q-1 25.5 32 29.5l956 33q36 0 36 -27.5t-33 -31.5l-954 -33h-2q-34 4 -35 29.5z" />
<glyph unicode="&#x2014;" horiz-adv-x="2088" d="M20.5 658.5q-2.5 25.5 63.5 29.5l1913 33q71 0 71 -27.5t-67 -31.5l-1907 -33h-5q-66 4 -68.5 29.5z" />
<glyph unicode="&#x2018;" horiz-adv-x="174" d="M20 942q0 27 23 58.5t49 50.5q18 12 31 -9q8 -12 -2 -20l-23 -18q35 -2 48.5 -32t-2 -59.5t-52.5 -31.5q-31 -2 -51.5 14t-20.5 47z" />
<glyph unicode="&#x2019;" horiz-adv-x="174" d="M27.5 971.5q-13.5 29.5 2 59.5t52.5 32q31 2 51.5 -14.5t20.5 -47.5q0 -27 -22.5 -58.5t-49.5 -49.5q-18 -12 -31 8q-8 12 2 21l23 18q-35 2 -48.5 31.5z" />
<glyph unicode="&#x201a;" horiz-adv-x="174" d="M27.5 31.5q-13.5 29.5 2 59.5t52.5 32q31 2 51.5 -14.5t20.5 -47.5q0 -27 -22.5 -58.5t-49.5 -49.5q-18 -12 -31 8q-8 12 2 21l23 18q-35 2 -48.5 31.5z" />
<glyph unicode="&#x201c;" horiz-adv-x="352" d="M20 942q0 27 23 58.5t49 50.5q18 12 31 -9q8 -12 -2 -20l-23 -18q35 -2 48.5 -32t-2 -59.5t-52.5 -31.5q-31 -2 -51.5 14t-20.5 47zM199 942q0 27 22.5 58.5t48.5 50.5q18 12 31 -9q8 -12 -2 -20l-23 -18q35 -2 48.5 -32t-2 -59.5t-52.5 -31.5q-31 -2 -51 14t-20 47z" />
<glyph unicode="&#x201d;" horiz-adv-x="348" d="M27.5 971.5q-13.5 29.5 2 59.5t52.5 32q31 2 51.5 -14.5t20.5 -47.5q0 -27 -22.5 -58.5t-49.5 -49.5q-18 -12 -31 8q-8 12 2 21l23 18q-35 2 -48.5 31.5zM201.5 971.5q-13.5 29.5 2 59.5t52.5 32q31 2 51.5 -14.5t20.5 -47.5q0 -27 -22.5 -58.5t-49.5 -49.5 q-18 -12 -31 8q-8 12 2 21l23 18q-35 2 -48.5 31.5z" />
<glyph unicode="&#x201e;" horiz-adv-x="354" d="M27.5 31.5q-13.5 29.5 2 59.5t52.5 32q31 2 51.5 -14.5t20.5 -47.5q0 -27 -22.5 -58.5t-49.5 -49.5q-18 -12 -31 8q-8 12 2 21l23 18q-35 2 -48.5 31.5zM208 31.5q-13 29.5 2 59.5t52 32q31 2 51.5 -14.5t20.5 -47.5q0 -27 -22.5 -58.5t-49.5 -49.5q-18 -12 -31 8 q-8 12 2 21l23 18q-35 2 -48 31.5z" />
<glyph unicode="&#x2026;" horiz-adv-x="522" d="M29.5 6q-17.5 31 0 62.5t58.5 31.5q39 2 55.5 -30.5t0 -64.5t-55.5 -30q-41 0 -58.5 31zM203.5 6q-17.5 31 0 62.5t58.5 31.5q39 2 55.5 -30.5t0 -64.5t-55.5 -30q-41 0 -58.5 31zM377.5 6q-17.5 31 0 62.5t58.5 31.5q39 2 55.5 -30.5t0 -64.5t-55.5 -30q-41 0 -58.5 31z " />
<glyph unicode="&#x202f;" horiz-adv-x="382" />
<glyph unicode="&#x205f;" horiz-adv-x="478" />
<glyph unicode="&#x20ac;" horiz-adv-x="1005" d="M22.5 430q0.5 27 26.5 31l221 6q18 127 49 256l-229 -2q-29 0 -28 27.5t28 31.5l246 2q94 330 209 439q98 92 207 79q113 -10 170 -129q6 -16 -4.5 -29.5t-27 -12.5t-22.5 18q-49 86 -132 93t-150 -62q-94 -86 -185 -394l363 4q16 0 24.5 -15t2 -29.5t-24.5 -14.5 l-383 -4q-39 -164 -51 -256l424 12q18 0 26.5 -14t2 -28.5t-24.5 -14.5l-436 -12q-53 -520 143 -527q121 -4 264 125q147 131 195 242q16 23 40.5 12.5t14.5 -37.5q-53 -119 -213 -260q-158 -139 -297 -139q-70 0 -119 46t-69 116q-18 66 -25 151q-8 125 6 269l-213 -7 q-29 0 -28.5 27z" />
<glyph unicode="&#x25fc;" horiz-adv-x="665" d="M0 0v666h666v-666h-666z" />
</font>
</defs>
</svg>
